<?xml version="1.0" encoding="UTF-8"?>
<svg id="_图层_1" data-name="图层 1" xmlns="http://www.w3.org/2000/svg" viewBox="0 0 1488 512">
  <defs>
    <style>
      .cls-1 {
        fill: #7289da;
      }
    </style>
  </defs>
  <g>
    <path class="cls-1" d="M788.54,250.34c9.27-5.28,16.71-12.44,22.29-21.49,8.41-13.65,12.62-30.01,12.62-49.06,0-26.83-8.22-47.03-24.65-60.61-16.43-13.58-40.05-20.36-70.85-20.36h-114.07V432.23h131.46c33.34,0,59.54-8.45,78.59-25.36,19.05-16.91,28.58-40.13,28.58-69.66,0-25.24-6.43-45.33-19.29-60.25-10.77-12.49-25.67-21.36-44.67-26.62Zm-122.74-105.07h55.01c15.56,0,27.82,3.14,36.79,9.41,8.97,6.27,13.46,17.98,13.46,35.13s-4.49,28.62-13.46,34.89c-8.97,6.27-21.24,9.41-36.79,9.41h-55.01v-88.83Zm115.86,228.02c-10.56,8.18-24.65,12.27-42.27,12.27h-73.59v-104.78h73.59c16.99,0,30.92,3.85,41.79,11.55,10.87,7.7,16.31,21.47,16.31,41.32,0,18.26-5.28,31.48-15.84,39.65Z"/>
    <path class="cls-1" d="M1063.85,208.73c-17.7-11.03-39.1-16.55-64.18-16.55s-46.24,5.52-63.94,16.55c-17.7,11.04-31.2,25.84-40.49,44.41-9.29,18.58-13.93,39.14-13.93,61.68s4.64,42.83,13.93,61.32c9.29,18.5,22.78,33.26,40.49,44.29,17.7,11.04,39.01,16.55,63.94,16.55s46.48-5.52,64.18-16.55c17.7-11.03,31.2-25.8,40.48-44.29,9.29-18.49,13.93-38.94,13.93-61.32s-4.64-43.1-13.93-61.68c-9.29-18.58-22.78-33.38-40.48-44.41Zm-13.81,164.2c-11.67,14.29-28.46,21.43-50.37,21.43s-38.26-7.14-50.01-21.43c-11.75-14.29-17.62-33.66-17.62-58.11s5.87-44.13,17.62-58.58c11.75-14.44,28.42-21.67,50.01-21.67s38.7,7.23,50.37,21.67c11.67,14.45,17.5,33.98,17.5,58.58s-5.83,43.82-17.5,58.11Z"/>
    <path class="cls-1" d="M1213.16,382.34c-1.67-6.11-2.5-15.68-2.5-28.7V75.01h-49.77V378.17c0,10.16,2.02,19.73,6.07,28.7,4.05,8.97,10.52,16.24,19.41,21.79,8.89,5.56,20.64,8.34,35.25,8.34h17.15l5.72-40.25c-9.53,0-16.71-.87-21.55-2.62-4.85-1.75-8.1-5.67-9.76-11.79Z"/>
    <path class="cls-1" d="M1438.09,75.01V217.51c-6.72-6.44-14.26-11.63-22.62-15.57-13.5-6.35-28.42-9.53-44.77-9.53-22.7,0-42.11,5.68-58.23,17.03-16.12,11.35-28.42,26.36-36.91,45.01-8.49,18.66-12.74,38.86-12.74,60.61s4.48,42.79,13.46,61.2c8.97,18.42,21.55,33.14,37.74,44.18,16.19,11.04,35.09,16.55,56.68,16.55,17.3,0,32.7-3.49,46.2-10.48,8.49-4.39,16-10.01,22.54-16.86l2.94,22.57h45.49V75.01h-49.77Zm-27.27,310.54c-9.61,5.87-20.28,8.81-32.03,8.81-13.66,0-25.36-3.49-35.13-10.48-9.76-6.98-17.23-16.47-22.39-28.46-5.16-11.98-7.74-25.44-7.74-40.37s2.58-29.33,7.74-41.32c5.16-11.98,12.62-21.43,22.39-28.34s21.47-10.36,35.13-10.36c11.75,0,22.42,3.14,32.03,9.41,9.6,6.27,17.23,15.4,22.86,27.39,5.63,11.99,8.45,26.4,8.45,43.22s-2.82,32.31-8.45,44.06c-5.64,11.75-13.26,20.56-22.86,26.43Z"/>
  </g>
  <path class="cls-1" d="M255.97,0C114.8,.03,.09,114.85,.13,256.07c.05,141.26,114.82,256.01,255.97,255.93,141.4-.09,256-114.57,256.03-255.77C512.17,114.62,397.55-.03,255.97,0Zm69.11,166H187.14v30c0,16.57,13.43,30,30,30h107.94v60h-108.28c-15.18,0-27.72,11.28-29.72,25.91v4.09h-.28v30h138.28v60H127.08v-120c0-16.57,13.43-30,30-30-16.57,0-30-13.43-30-30V106h198v60Zm60.11,180h-60v-60h60v60Zm0-120h-60v-60h60v60Z"/>
</svg>