<?xml version="1.0" encoding="UTF-8"?>
<svg id="_图层_1" data-name="图层 1" xmlns="http://www.w3.org/2000/svg" viewBox="0 0 512 512">
  <defs>
    <style>
      .cls-1 {
        fill: #fff;
      }

      .cls-2 {
        fill: #111;
      }
    </style>
  </defs>
  <g>
    <path class="cls-1" d="M428.28,66.65l-147.41,187.16,.04,.05-.09,.11,65.44,83.09-51.09-.23-23.44-29.76-16.33-20.91-.28,.36-19.15,24.25,.03,.04-123.71,157.06c8.89,6.04,18.18,11.54,27.83,16.45l116.27-147.62,25.42,32.28h128.29l-89.57-113.72L450.77,89.88c-7-8.2-14.51-15.97-22.48-23.23Z"/>
    <path class="cls-1" d="M371.9,27.69l-115.31,146.4-27.69-35.15H100.61l91.83,116.59L61.23,422.12c6.29,7.37,12.99,14.37,20.07,20.98L230.01,254.3l-.21-.27,.08-.1-65.44-83.09h50.92l26.94,34.2,13.2,16.9L396.98,42.31c-8.06-5.33-16.42-10.22-25.08-14.62Z"/>
  </g>
  <g>
    <path class="cls-2" d="M256,0C114.62,0,0,114.62,0,256c0,63.36,23.03,121.33,61.16,166.03,.1-.08,.21-.16,.33-.23L192.45,255.53l-91.83-116.59H228.91l27.69,35.15L371.89,27.7C337.09,9.99,297.72,0,256,0Z"/>
    <path class="cls-2" d="M280.91,253.85l-.04-.05L428.28,66.65c-9.77-8.89-20.24-17.02-31.31-24.33L255.49,221.95l-13.2-16.9-26.94-34.2h-50.92l65.44,83.09-.08,.1,.21,.27L81.31,443.09c9.66,9.02,20,17.31,30.97,24.76l123.7-157.05-.03-.04,19.15-24.25,.28-.36,16.33,20.91,23.44,29.76,51.09,.23-65.44-83.09,.09-.11Z"/>
    <path class="cls-2" d="M450.77,89.88l-130.25,165.37,89.57,113.72h-128.29l-25.42-32.28-116.27,147.62c34.8,17.7,74.18,27.69,115.9,27.69,141.39,0,256-114.61,256-256,0-63.4-23.06-121.41-61.23-166.12Z"/>
  </g>
</svg>