<svg
                xmlns="http://www.w3.org/2000/svg"
                width="12px"
                height="12px"
                fill="#9AA0AA"
                viewBox="0 0 16 16"
              >
                <path d="M14.144.528c.091.158.138.337.138.519v13.148a1.046 1.046 0 01-1.566.909l-5.53-3.16v2.251c0 .176.001.364-.036.514a.793.793 0 01-.18.357 1.047 1.047 0 01-.811.383H4.947a.95.95 0 01-.63-.23.801.801 0 01-.299-.612V11.81H2.762a1.047 1.047 0 01-1.047-1.047V4.48c0-.579.469-1.047 1.047-1.047h4.19L12.715.138a1.047 1.047 0 011.428.39z"></path>
              </svg>