<?xml version="1.0" encoding="UTF-8"?>
<svg id="_图层_1" data-name="图层 1" xmlns="http://www.w3.org/2000/svg" viewBox="0 0 512 512">
  <defs>
    <style>
      .cls-1 {
        fill: #422ddd;
      }
    </style>
  </defs>
  <path class="cls-1" d="M348.24,308.45c84.81-82.27,54.58-188.21,52.46-195.24l.12-.12-.18-.06-.06-.18-.12,.12c-7.04-2.13-112.99-32.37-195.25,52.45-22.92-4.82-53.51-3.26-79.03,26.86-25.49,30.1-17.19,75.29-5.95,84.52,11.24,9.24,15.97-1.45,15.97-1.45l17.92-10.9s-8.08,38.27-3.23,43.1c4.7,3.99,25.06,24.98,27.49,27.49l.25,.25c2.51,2.44,23.5,22.79,27.49,27.49,4.83,4.83,43.1-3.22,43.1-3.22l-10.92,17.91s-10.68,4.74-1.45,15.98c9.23,11.25,54.41,19.55,84.52-5.95,30.12-25.49,31.68-56.1,26.87-79.02Zm-70.29-72.75c-1.91-1.98-26.3-28.22,1.23-60.42,29.24-27.54,58.5-3.29,60.64-1.45,1.86,2.15,26.09,31.4-1.45,60.64-32.19,27.53-58.45,3.14-60.42,1.23ZM119.02,364.7c-3.33,3.4-8.79,3.44-12.18,.11,0,0,0,0,0,0-3.34-3.39-3.3-8.84,.08-12.19l30.38-30.38c3.35-3.39,8.81-3.43,12.2-.09,3.33,3.33,3.28,8.8-.1,12.19l-30.38,30.38h.01s0-.01,0-.01Zm5.79,38.7c-3.39,3.43-8.92,3.47-12.36,.09-3.38-3.44-3.35-8.97,.09-12.36l45.18-45.18c3.44-3.44,8.97-3.5,12.35-.12,3.4,3.44,3.36,8.99-.08,12.39l-45.18,45.18Zm44.06-3.14c-3.39,3.39-8.85,3.42-12.19,.08-3.33-3.39-3.28-8.84,.09-12.18l21.68-21.68c3.37-3.37,8.84-3.41,12.17-.08,3.34,3.34,3.31,8.8-.07,12.19l-21.67,21.67h0Z"/>
</svg>