<svg
            xmlns="http://www.w3.org/2000/svg"
            width="14px"
            height="14px"
            fill="#dfff18"
            viewBox="0 0 16 16"
          >
            <g clip-path="url(#clip0_8890_490)">
              <path d="M15.807 10.498c.126-.372-.29-.676-.65-.521A6.703 6.703 0 016.574.702c.182-.347-.089-.785-.47-.688a8.119 8.119 0 109.701 10.484z"></path>
              <path d="M13.3 1.284a.447.447 0 01.73.387l-.148 1.535a1.34 1.34 0 00.365 1.055l1.076 1.125c.297.31.027.82-.396.75L13.39 5.88a1.34 1.34 0 00-1.078.292l-1.185.987a.447.447 0 01-.731-.387l.149-1.535a1.34 1.34 0 00-.366-1.055L9.105 3.056a.447.447 0 01.396-.75l1.536.257a1.34 1.34 0 001.078-.292l1.185-.987z"></path>
            </g>
            <defs>
              <clipPath id="clip0_8890_490">
                <rect width="16" height="16"></rect>
              </clipPath>
            </defs>
          </svg>