<svg
                xmlns="http://www.w3.org/2000/svg"
                width="12px"
                height="12px"
                fill="currentColor"
                viewBox="0 0 20 20"
              >
                <path
                  fill-rule="evenodd"
                  clip-rule="evenodd"
                  d="M10 20c5.523 0 10-4.477 10-10S15.523 0 10 0 0 4.477 0 10s4.477 10 10 10zM6.465 5.501a.386.386 0 00-.266.11L4.39 7.42a.188.188 0 00.133.32h9.164c.101 0 .197-.04.266-.109l1.81-1.81a.188.188 0 00-.133-.32H6.465zm0 6.758a.376.376 0 00-.266.11l-1.81 1.81a.188.188 0 00.133.32h9.164c.101 0 .197-.04.266-.11l1.81-1.81a.188.188 0 00-.133-.32H6.465zm7.487-3.289a.376.376 0 00-.266-.11H4.522a.188.188 0 00-.133.321l1.81 1.81c.07.07.165.11.266.11h9.164a.188.188 0 00.133-.32l-1.81-1.81z"
                ></path>
              </svg>