<svg
                xmlns="http://www.w3.org/2000/svg"
                width="12px"
                height="12px"
                fill="currentColor"
                viewBox="0 0 20 20"
              >
                <g clip-path="url(#clip0_1553_2200)">
                  <path
                    fill-rule="evenodd"
                    clip-rule="evenodd"
                    d="M10 0C4.477 0 0 4.477 0 10s4.477 10 10 10 10-4.477 10-10S15.523 0 10 0zM6.446 2.831A8.037 8.037 0 003.07 6h2.323c.212-1.023.505-1.96.865-2.77.06-.136.123-.269.188-.399zM2 10c0-.69.088-1.36.252-2h2.842a21.008 21.008 0 000 4H2.252A8.013 8.013 0 012 10zm1.07 4a8.037 8.037 0 003.376 3.169 9.877 9.877 0 01-.188-.399c-.36-.81-.653-1.747-.865-2.77H3.07zm4.372 0c.173.732.392 1.392.643 1.958.328.738.693 1.273 1.047 1.61.35.333.641.432.868.432.227 0 .518-.1.867-.432.355-.337.72-.872 1.048-1.61.251-.566.47-1.226.643-1.958H7.442zm7.165 0a13.716 13.716 0 01-.865 2.77c-.06.136-.123.269-.188.399A8.037 8.037 0 0016.93 14h-2.323zm3.14-2h-2.841a21.027 21.027 0 000-4h2.842c.165.64.252 1.31.252 2s-.087 1.36-.252 2zm-4.851 0H7.104A18.907 18.907 0 017 10c0-.693.037-1.362.104-2h5.792c.067.638.104 1.307.104 2 0 .693-.037 1.362-.104 2zm1.71-6h2.324a8.037 8.037 0 00-3.376-3.169c.065.13.128.263.188.399.36.81.653 1.747.865 2.77zm-6.52-1.958c-.252.566-.47 1.226-.644 1.958h5.116a11.248 11.248 0 00-.643-1.958c-.328-.738-.693-1.273-1.047-1.61C10.518 2.099 10.226 2 10 2c-.227 0-.518.1-.868.432-.354.337-.719.872-1.047 1.61z"
                  ></path>
                </g>
                <defs>
                  <clipPath id="clip0_1553_2200">
                    <rect width="20" height="20"></rect>
                  </clipPath>
                </defs>
              </svg>