<svg xmlns="http://www.w3.org/2000/svg" width="16px" height="16px" fill="#F04866" viewBox="0 0 20 20"><path d="M12.134 18a.428.428 0 01-.222-.054.401.401 0 01-.157-.158.28.28 0 01-.007-.22.298.298 0 01.157-.163 4.64 4.64 0 001.653-1.616c.4-.662.616-1.41.63-2.174.011-1.258-.535-3.162-3.081-5.311a9.527 9.527 0 01-1.34 5.042.432.432 0 01-.194.15.456.456 0 01-.25.022.379.379 0 01-.218-.095.347.347 0 01-.112-.203 3.396 3.396 0 00-.985-1.944c-.189.485-.411.957-.666 1.413a4.578 4.578 0 00-.727 2.406c0 .795.799 1.721 1.573 2.213.06.024.113.065.15.117a.317.317 0 01.06.175.357.357 0 01-.135.239.393.393 0 01-.273.08h-.012a.525.525 0 01-.132-.016C4.723 17.045 3 15.296 3 12.98c0-1.966 1.129-3.55 2.318-5.225A16.86 16.86 0 008.206 2.26a.358.358 0 01.101-.157.385.385 0 01.17-.09.495.495 0 01.402.075C14.536 6.263 17.4 9.093 17.4 12.946c0 2.533-2.24 4.705-5.206 5.054h-.06z"></path></svg>