<svg viewBox="0 0 148 33" focusable="false" class="chakra-icon css-1led4mo" xmlns="http://www.w3.org/2000/svg"><path d="M44.1258 8.82497V12.3245C44.1258 12.4118 44.055 12.4839 43.9662 12.4839H41.9743C40.7861 12.4839 39.8228 13.4457 39.8228 14.6321V16.621C39.8228 16.7083 39.752 16.7803 39.6631 16.7803H36.1596C36.0722 16.7803 36 16.7097 36 16.621V13.1214C36 13.0341 36.0708 12.962 36.1596 12.962H38.1515C39.3397 12.962 40.303 12.0002 40.303 10.8138V8.82497C40.303 8.73766 40.3738 8.66559 40.4627 8.66559H43.9676C44.055 8.66559 44.1272 8.73627 44.1272 8.82497H44.1258Z" fill="url(#paint0_radial_1017_4473)"></path><path d="M52.7284 25.2095V21.71C52.7284 21.6227 52.6576 21.5506 52.5688 21.5506H50.5769C49.3887 21.5506 48.4254 20.5888 48.4254 19.4024V17.4135C48.4254 17.3262 48.3546 17.2542 48.2657 17.2542H44.7608C44.6734 17.2542 44.6012 17.3248 44.6012 17.4135V20.9131C44.6012 21.0004 44.672 21.0725 44.7608 21.0725H46.7527C47.9409 21.0725 48.9042 22.0343 48.9042 23.2207V25.2095C48.9042 25.2968 48.975 25.3689 49.0639 25.3689H52.5688C52.6562 25.3689 52.7284 25.2982 52.7284 25.2095Z" fill="url(#paint1_radial_1017_4473)"></path><path d="M44.1258 29.5061V26.0066C44.1258 25.9192 44.055 25.8472 43.9662 25.8472H41.9743C40.7861 25.8472 39.8228 24.8853 39.8228 23.6989V21.7101C39.8228 21.6228 39.752 21.5507 39.6631 21.5507H36.1596C36.0722 21.5507 36 21.6214 36 21.7101V25.2096C36 25.2969 36.0708 25.369 36.1596 25.369H38.1515C39.3397 25.369 40.303 26.3309 40.303 27.5172V29.5061C40.303 29.5934 40.3738 29.6655 40.4627 29.6655H43.9676C44.055 29.6655 44.1272 29.5948 44.1272 29.5061H44.1258Z" fill="url(#paint2_radial_1017_4473)"></path><path d="M39.6645 17.2557H36.1596C36.0715 17.2557 36 17.327 36 17.415V20.9146C36 21.0026 36.0715 21.074 36.1596 21.074H39.6645C39.7527 21.074 39.8242 21.0026 39.8242 20.9146V17.415C39.8242 17.327 39.7527 17.2557 39.6645 17.2557Z" fill="url(#paint3_radial_1017_4473)"></path><path d="M48.2605 8.66556H44.7556C44.6674 8.66556 44.596 8.73692 44.596 8.82494V12.3245C44.596 12.4125 44.6674 12.4839 44.7556 12.4839H48.2605C48.3486 12.4839 48.4201 12.4125 48.4201 12.3245V8.82494C48.4201 8.73692 48.3486 8.66556 48.2605 8.66556Z" fill="url(#paint4_radial_1017_4473)"></path><path d="M52.5581 8.66556H49.0532C48.9651 8.66556 48.8936 8.73692 48.8936 8.82494V12.3245C48.8936 12.4125 48.9651 12.4839 49.0532 12.4839H52.5581C52.6463 12.4839 52.7177 12.4125 52.7177 12.3245V8.82494C52.7177 8.73692 52.6463 8.66556 52.5581 8.66556Z" fill="url(#paint5_radial_1017_4473)"></path><path d="M48.268 25.8472H44.7631C44.6749 25.8472 44.6034 25.9186 44.6034 26.0066V29.5061C44.6034 29.5942 44.6749 29.6655 44.7631 29.6655H48.268C48.3561 29.6655 48.4276 29.5942 48.4276 29.5061V26.0066C48.4276 25.9186 48.3561 25.8472 48.268 25.8472Z" fill="url(#paint6_radial_1017_4473)"></path><path d="M52.5693 25.8472H49.0644C48.9762 25.8472 48.9048 25.9186 48.9048 26.0066V29.5061C48.9048 29.5942 48.9762 29.6655 49.0644 29.6655H52.5693C52.6575 29.6655 52.7289 29.5942 52.7289 29.5061V26.0066C52.7289 25.9186 52.6575 25.8472 52.5693 25.8472Z" fill="url(#paint7_radial_1017_4473)"></path><path d="M120.351 29.5061V26.0066C120.351 25.9192 120.28 25.8472 120.192 25.8472H118.2C117.011 25.8472 116.048 24.8853 116.048 23.6989V21.7101C116.048 21.6228 115.977 21.5507 115.888 21.5507H112.384C112.296 21.5507 112.224 21.6214 112.224 21.7101V25.2096C112.224 25.2969 112.295 25.369 112.384 25.369H114.375C115.564 25.369 116.527 26.3309 116.527 27.5172V29.5061C116.527 29.5934 116.598 29.6655 116.687 29.6655H120.192C120.279 29.6655 120.351 29.5948 120.351 29.5061Z" fill="url(#paint8_radial_1017_4473)"></path><path d="M120.829 29.5061V26.0066C120.829 25.9192 120.9 25.8472 120.988 25.8472H122.98C124.169 25.8472 125.132 24.8853 125.132 23.6989V21.7101C125.132 21.6228 125.203 21.5507 125.292 21.5507H128.796C128.884 21.5507 128.956 21.6214 128.956 21.7101V25.2096C128.956 25.2969 128.885 25.369 128.796 25.369H126.805C125.616 25.369 124.653 26.3309 124.653 27.5172V29.5061C124.653 29.5934 124.582 29.6655 124.493 29.6655H120.988C120.901 29.6655 120.829 29.5948 120.829 29.5061Z" fill="url(#paint9_radial_1017_4473)"></path><path d="M115.89 8.66556H112.385C112.297 8.66556 112.225 8.73692 112.225 8.82494V12.3245C112.225 12.4125 112.297 12.4839 112.385 12.4839H115.89C115.978 12.4839 116.05 12.4125 116.05 12.3245V8.82494C116.05 8.73692 115.978 8.66556 115.89 8.66556Z" fill="url(#paint10_radial_1017_4473)"></path><path d="M128.796 8.66556H125.291C125.203 8.66556 125.132 8.73692 125.132 8.82494V12.3245C125.132 12.4125 125.203 12.4839 125.291 12.4839H128.796C128.884 12.4839 128.956 12.4125 128.956 12.3245V8.82494C128.956 8.73692 128.884 8.66556 128.796 8.66556Z" fill="url(#paint11_radial_1017_4473)"></path><path d="M115.89 17.2557H112.385C112.297 17.2557 112.225 17.327 112.225 17.415V20.9146C112.225 21.0026 112.297 21.074 112.385 21.074H115.89C115.978 21.074 116.05 21.0026 116.05 20.9146V17.415C116.05 17.327 115.978 17.2557 115.89 17.2557Z" fill="url(#paint12_radial_1017_4473)"></path><path d="M128.796 17.2557H125.291C125.203 17.2557 125.132 17.327 125.132 17.415V20.9146C125.132 21.0026 125.203 21.074 125.291 21.074H128.796C128.884 21.074 128.956 21.0026 128.956 20.9146V17.415C128.956 17.327 128.884 17.2557 128.796 17.2557Z" fill="url(#paint13_radial_1017_4473)"></path><path d="M128.796 12.9602H125.291C125.203 12.9602 125.132 13.0316 125.132 13.1196V16.6191C125.132 16.7072 125.203 16.7785 125.291 16.7785H128.796C128.884 16.7785 128.956 16.7072 128.956 16.6191V13.1196C128.956 13.0316 128.884 12.9602 128.796 12.9602Z" fill="url(#paint14_radial_1017_4473)"></path><path d="M115.89 12.9602H112.385C112.297 12.9602 112.225 13.0316 112.225 13.1196V16.6191C112.225 16.7072 112.297 16.7785 112.385 16.7785H115.89C115.978 16.7785 116.05 16.7072 116.05 16.6191V13.1196C116.05 13.0316 115.978 12.9602 115.89 12.9602Z" fill="url(#paint15_radial_1017_4473)"></path><path d="M55.0425 25.2095V21.71C55.0425 21.6227 55.1133 21.5506 55.2021 21.5506H57.194C58.3822 21.5506 59.3455 20.5888 59.3455 19.4024V17.4135C59.3455 17.3262 59.4163 17.2542 59.5051 17.2542H63.01C63.0975 17.2542 63.1696 17.3248 63.1696 17.4135V20.9131C63.1696 21.0004 63.0989 21.0725 63.01 21.0725H61.0181C59.8299 21.0725 58.8666 22.0343 58.8666 23.2207V25.2095C58.8666 25.2968 58.7958 25.3689 58.707 25.3689H55.2021C55.1146 25.3689 55.0425 25.2982 55.0425 25.2095Z" fill="url(#paint16_radial_1017_4473)"></path><path d="M67.47 18.9258V19.4025C67.47 20.5889 68.4334 21.5508 69.6216 21.5508H71.6135C71.7023 21.5508 71.7731 21.6215 71.7731 21.7102V25.2097C71.7731 25.2984 71.7023 25.3691 71.6135 25.3691H68.1086C68.0197 25.3691 67.9489 25.2984 67.9489 25.2097V23.2208C67.9489 22.0345 66.9856 21.0726 65.7974 21.0726H63.8055C63.7167 21.0726 63.6459 21.0019 63.6459 20.9132V17.4137C63.6459 17.325 63.7167 17.2543 63.8055 17.2543H65.7974C66.9856 17.2543 67.9489 16.2925 67.9489 15.1061V14.6293C67.9489 13.4429 66.9856 12.4811 65.7974 12.4811H63.8055C63.7167 12.4811 63.6459 12.4104 63.6459 12.3217V8.82494C63.6459 8.73624 63.7167 8.66556 63.8055 8.66556H67.3104C67.3993 8.66556 67.47 8.73624 67.47 8.82494V10.8138C67.47 12.0002 68.4334 12.962 69.6216 12.962H71.6135C71.7023 12.962 71.7731 13.0327 71.7731 13.1214V16.6209C71.7731 16.7096 71.7023 16.7803 71.6135 16.7803H69.6216C68.4334 16.7803 67.47 17.7422 67.47 18.9285V18.9258Z" fill="url(#paint17_radial_1017_4473)"></path><path d="M58.707 25.8472H55.2021C55.1139 25.8472 55.0425 25.9186 55.0425 26.0066V29.5061C55.0425 29.5942 55.1139 29.6655 55.2021 29.6655H58.707C58.7951 29.6655 58.8666 29.5942 58.8666 29.5061V26.0066C58.8666 25.9186 58.7951 25.8472 58.707 25.8472Z" fill="url(#paint18_radial_1017_4473)"></path><path d="M58.707 12.9602H55.2021C55.1139 12.9602 55.0425 13.0316 55.0425 13.1196V16.6191C55.0425 16.7072 55.1139 16.7785 55.2021 16.7785H58.707C58.7951 16.7785 58.8666 16.7072 58.8666 16.6191V13.1196C58.8666 13.0316 58.7951 12.9602 58.707 12.9602Z" fill="url(#paint19_radial_1017_4473)"></path><path d="M58.707 8.66556H55.2021C55.1139 8.66556 55.0425 8.73692 55.0425 8.82494V12.3245C55.0425 12.4125 55.1139 12.4839 55.2021 12.4839H58.707C58.7951 12.4839 58.8666 12.4125 58.8666 12.3245V8.82494C58.8666 8.73692 58.7951 8.66556 58.707 8.66556Z" fill="url(#paint20_radial_1017_4473)"></path><path d="M63.0083 8.66556H59.5034C59.4153 8.66556 59.3438 8.73692 59.3438 8.82494V12.3245C59.3438 12.4125 59.4153 12.4839 59.5034 12.4839H63.0083C63.0965 12.4839 63.1679 12.4125 63.1679 12.3245V8.82494C63.1679 8.73692 63.0965 8.66556 63.0083 8.66556Z" fill="url(#paint21_radial_1017_4473)"></path><path d="M71.6117 25.8472H68.1069C68.0187 25.8472 67.9472 25.9186 67.9472 26.0066V29.5061C67.9472 29.5942 68.0187 29.6655 68.1069 29.6655H71.6117C71.6999 29.6655 71.7714 29.5942 71.7714 29.5061V26.0066C71.7714 25.9186 71.6999 25.8472 71.6117 25.8472Z" fill="url(#paint22_radial_1017_4473)"></path><path d="M58.8666 19.5092V17.415C58.8666 17.3277 58.7958 17.2557 58.707 17.2557H55.2021C55.1146 17.2557 55.0425 17.3263 55.0425 17.415V20.9146C55.0425 21.0019 55.1133 21.074 55.2021 21.074H57.2995C58.1656 21.074 58.8666 20.3727 58.8666 19.5092Z" fill="url(#paint23_radial_1017_4473)"></path><path d="M93.1644 25.2095V21.71C93.1644 21.6226 93.2352 21.5506 93.324 21.5506H95.3159C96.5041 21.5506 97.4674 20.5887 97.4674 19.4024V17.4135C97.4674 17.3262 97.5382 17.2541 97.627 17.2541H101.132C101.219 17.2541 101.292 17.3248 101.292 17.4135V20.913C101.292 21.0004 101.221 21.0724 101.132 21.0724H99.14C97.9518 21.0724 96.9885 22.0343 96.9885 23.2207V25.2095C96.9885 25.2968 96.9177 25.3689 96.8289 25.3689H93.324C93.2365 25.3689 93.1644 25.2982 93.1644 25.2095Z" fill="url(#paint24_radial_1017_4473)"></path><path d="M96.8289 25.8472H93.324C93.2358 25.8472 93.1644 25.9186 93.1644 26.0066V29.5061C93.1644 29.5941 93.2358 29.6655 93.324 29.6655H96.8289C96.917 29.6655 96.9885 29.5941 96.9885 29.5061V26.0066C96.9885 25.9186 96.917 25.8472 96.8289 25.8472Z" fill="url(#paint25_radial_1017_4473)"></path><path d="M96.8289 12.9602H93.324C93.2358 12.9602 93.1644 13.0315 93.1644 13.1196V16.6191C93.1644 16.7071 93.2358 16.7785 93.324 16.7785H96.8289C96.917 16.7785 96.9885 16.7071 96.9885 16.6191V13.1196C96.9885 13.0315 96.917 12.9602 96.8289 12.9602Z" fill="url(#paint26_radial_1017_4473)"></path><path d="M96.8289 8.66556H93.324C93.2359 8.66556 93.1644 8.73692 93.1644 8.82494V12.3245C93.1644 12.4125 93.2359 12.4839 93.324 12.4839H96.8289C96.9171 12.4839 96.9885 12.4125 96.9885 12.3245V8.82494C96.9885 8.73692 96.9171 8.66556 96.8289 8.66556Z" fill="url(#paint27_radial_1017_4473)"></path><path d="M101.13 8.66553H97.6253C97.5372 8.66553 97.4657 8.73689 97.4657 8.82491V12.3244C97.4657 12.4125 97.5372 12.4838 97.6253 12.4838H101.13C101.218 12.4838 101.29 12.4125 101.29 12.3244V8.82491C101.29 8.73689 101.218 8.66553 101.13 8.66553Z" fill="url(#paint28_radial_1017_4473)"></path><path d="M105.421 8.66553H101.916C101.828 8.66553 101.757 8.73689 101.757 8.82491V12.3244C101.757 12.4125 101.828 12.4838 101.916 12.4838H105.421C105.509 12.4838 105.581 12.4125 105.581 12.3244V8.82491C105.581 8.73689 105.509 8.66553 105.421 8.66553Z" fill="url(#paint29_radial_1017_4473)"></path><path d="M109.755 8.66553H106.25C106.162 8.66553 106.091 8.73689 106.091 8.82491V12.3244C106.091 12.4125 106.162 12.4838 106.25 12.4838H109.755C109.843 12.4838 109.915 12.4125 109.915 12.3244V8.82491C109.915 8.73689 109.843 8.66553 109.755 8.66553Z" fill="url(#paint30_radial_1017_4473)"></path><path d="M105.421 17.2556H101.916C101.828 17.2556 101.757 17.327 101.757 17.415V20.9145C101.757 21.0026 101.828 21.0739 101.916 21.0739H105.421C105.509 21.0739 105.581 21.0026 105.581 20.9145V17.415C105.581 17.327 105.509 17.2556 105.421 17.2556Z" fill="url(#paint31_radial_1017_4473)"></path><path d="M109.755 17.2556H106.25C106.162 17.2556 106.091 17.327 106.091 17.415V20.9145C106.091 21.0026 106.162 21.0739 106.25 21.0739H109.755C109.843 21.0739 109.915 21.0026 109.915 20.9145V17.415C109.915 17.327 109.843 17.2556 109.755 17.2556Z" fill="url(#paint32_radial_1017_4473)"></path><path d="M96.9885 19.5092V17.415C96.9885 17.3277 96.9177 17.2556 96.8289 17.2556H93.324C93.2365 17.2556 93.1644 17.3263 93.1644 17.415V20.9145C93.1644 21.0019 93.2352 21.0739 93.324 21.0739H95.4214C96.2875 21.0739 96.9885 20.3726 96.9885 19.5092Z" fill="url(#paint33_radial_1017_4473)"></path><path d="M82.2098 8.82497V12.3245C82.2098 12.4118 82.139 12.4839 82.0502 12.4839H80.0583C78.8701 12.4839 77.9068 13.4457 77.9068 14.6321V16.621C77.9068 16.7083 77.836 16.7803 77.7472 16.7803H74.2423C74.1548 16.7803 74.0826 16.7097 74.0826 16.621V13.1214C74.0826 13.0341 74.1534 12.962 74.2423 12.962H76.2342C77.4224 12.962 78.3857 12.0002 78.3857 10.8138V8.82497C78.3857 8.73766 78.4565 8.66559 78.5453 8.66559H82.0502C82.1376 8.66559 82.2098 8.73627 82.2098 8.82497Z" fill="url(#paint34_radial_1017_4473)"></path><path d="M82.2098 17.415V20.9146C82.2098 21.0019 82.139 21.074 82.0502 21.074H80.0583C78.8701 21.074 77.9068 22.0358 77.9068 23.2222V25.211C77.9068 25.2983 77.836 25.3704 77.7472 25.3704H74.2423C74.1548 25.3704 74.0826 25.2997 74.0826 25.211V21.7115C74.0826 21.6242 74.1534 21.5521 74.2423 21.5521H76.2342C77.4223 21.5521 78.3857 20.5903 78.3857 19.4039V17.415C78.3857 17.3277 78.4565 17.2557 78.5453 17.2557H82.0502C82.1376 17.2557 82.2098 17.3263 82.2098 17.415Z" fill="url(#paint35_radial_1017_4473)"></path><path d="M82.6883 8.82494V12.3245C82.6883 12.4118 82.7591 12.4839 82.8479 12.4839H84.8398C86.028 12.4839 86.9913 13.4457 86.9913 14.6321V16.6209C86.9913 16.7082 87.0621 16.7803 87.151 16.7803H90.6559C90.7433 16.7803 90.8155 16.7096 90.8155 16.6209V13.1214C90.8155 13.0341 90.7447 12.962 90.6559 12.962H88.664C87.4758 12.962 86.5125 12.0002 86.5125 10.8138V8.82494C86.5125 8.73763 86.4417 8.66556 86.3528 8.66556H82.8479C82.7605 8.66556 82.6883 8.73624 82.6883 8.82494Z" fill="url(#paint36_radial_1017_4473)"></path><path d="M82.6883 17.415V20.9146C82.6883 21.0019 82.7591 21.074 82.8479 21.074H84.8398C86.028 21.074 86.9913 22.0358 86.9913 23.2222V25.211C86.9913 25.2983 87.0621 25.3704 87.151 25.3704H90.6559C90.7433 25.3704 90.8155 25.2997 90.8155 25.211V21.7115C90.8155 21.6242 90.7447 21.5521 90.6559 21.5521H88.664C87.4758 21.5521 86.5125 20.5903 86.5125 19.4039V17.415C86.5125 17.3277 86.4417 17.2557 86.3528 17.2557H82.8479C82.7605 17.2557 82.6883 17.3263 82.6883 17.415Z" fill="url(#paint37_radial_1017_4473)"></path><path d="M77.7494 25.8472H74.2445C74.1563 25.8472 74.0849 25.9186 74.0849 26.0066V29.5061C74.0849 29.5942 74.1563 29.6655 74.2445 29.6655H77.7494C77.8376 29.6655 77.909 29.5942 77.909 29.5061V26.0066C77.909 25.9186 77.8376 25.8472 77.7494 25.8472Z" fill="url(#paint38_radial_1017_4473)"></path><path d="M90.6542 25.8472H87.1493C87.0611 25.8472 86.9896 25.9186 86.9896 26.0066V29.5061C86.9896 29.5942 87.0611 29.6655 87.1493 29.6655H90.6542C90.7423 29.6655 90.8138 29.5942 90.8138 29.5061V26.0066C90.8138 25.9186 90.7423 25.8472 90.6542 25.8472Z" fill="url(#paint39_radial_1017_4473)"></path><path d="M77.9076 19.5092V17.415C77.9076 17.3277 77.8368 17.2557 77.7479 17.2557H74.243C74.1556 17.2557 74.0834 17.3263 74.0834 17.415V20.9146C74.0834 21.0019 74.1542 21.074 74.243 21.074H76.3404C77.2066 21.074 77.9076 20.3727 77.9076 19.5092Z" fill="url(#paint40_radial_1017_4473)"></path><path d="M87.0268 19.5092V17.415C87.0268 17.3277 87.0976 17.2557 87.1864 17.2557H90.6913C90.7788 17.2557 90.8509 17.3263 90.8509 17.415V20.9146C90.8509 21.0019 90.7802 21.074 90.6913 21.074H88.5939C87.7278 21.074 87.0268 20.3727 87.0268 19.5092Z" fill="url(#paint41_radial_1017_4473)"></path><path d="M131.269 8.82497V12.3245C131.269 12.4118 131.34 12.4839 131.429 12.4839H133.421C134.609 12.4839 135.572 13.4457 135.572 14.6321V16.621C135.572 16.7083 135.643 16.7803 135.732 16.7803H139.237C139.324 16.7803 139.397 16.7097 139.397 16.621V13.1214C139.397 13.0341 139.326 12.962 139.237 12.962H137.245C136.057 12.962 135.094 12.0002 135.094 10.8138V8.82497C135.094 8.73766 135.023 8.66559 134.934 8.66559H131.429C131.342 8.66559 131.269 8.73627 131.269 8.82497Z" fill="url(#paint42_radial_1017_4473)"></path><path d="M139.873 21.7101V25.2096C139.873 25.2969 139.944 25.369 140.032 25.369H142.024C143.213 25.369 144.176 26.3309 144.176 27.5172V29.5061C144.176 29.5934 144.247 29.6655 144.335 29.6655H147.84C147.928 29.6655 148 29.5948 148 29.5061V26.0066C148 25.9192 147.929 25.8472 147.84 25.8472H145.848C144.66 25.8472 143.697 24.8853 143.697 23.6989V21.7101C143.697 21.6228 143.626 21.5507 143.537 21.5507H140.032C139.945 21.5507 139.873 21.6214 139.873 21.7101Z" fill="url(#paint43_radial_1017_4473)"></path><path d="M147.839 8.66556H144.334C144.246 8.66556 144.174 8.73692 144.174 8.82494V12.3245C144.174 12.4125 144.246 12.4839 144.334 12.4839H147.839C147.927 12.4839 147.998 12.4125 147.998 12.3245V8.82494C147.998 8.73692 147.927 8.66556 147.839 8.66556Z" fill="url(#paint44_radial_1017_4473)"></path><path d="M134.934 17.2557H131.429C131.341 17.2557 131.269 17.327 131.269 17.415V20.9146C131.269 21.0026 131.341 21.074 131.429 21.074H134.934C135.022 21.074 135.094 21.0026 135.094 20.9146V17.415C135.094 17.327 135.022 17.2557 134.934 17.2557Z" fill="url(#paint45_radial_1017_4473)"></path><path d="M135.094 14.525V16.6191C135.094 16.7065 135.023 16.7785 134.934 16.7785H131.429C131.342 16.7785 131.269 16.7078 131.269 16.6191V13.1196C131.269 13.0323 131.34 12.9602 131.429 12.9602H133.526C134.393 12.9602 135.094 13.6615 135.094 14.525Z" fill="url(#paint46_radial_1017_4473)"></path><path d="M147.998 21.7101V25.2096C147.998 25.2969 147.928 25.369 147.839 25.369H145.741C144.875 25.369 144.174 24.6677 144.174 23.8043V21.7101C144.174 21.6228 144.245 21.5507 144.334 21.5507H147.839C147.926 21.5507 147.998 21.6214 147.998 21.7101Z" fill="url(#paint47_radial_1017_4473)"></path><path d="M134.934 21.5507H131.429C131.341 21.5507 131.269 21.6221 131.269 21.7101V25.2096C131.269 25.2977 131.341 25.369 131.429 25.369H134.934C135.022 25.369 135.094 25.2977 135.094 25.2096V21.7101C135.094 21.6221 135.022 21.5507 134.934 21.5507Z" fill="url(#paint48_radial_1017_4473)"></path><path d="M134.934 25.8472H131.429C131.341 25.8472 131.269 25.9186 131.269 26.0066V29.5061C131.269 29.5942 131.341 29.6655 131.429 29.6655H134.934C135.022 29.6655 135.094 29.5942 135.094 29.5061V26.0066C135.094 25.9186 135.022 25.8472 134.934 25.8472Z" fill="url(#paint49_radial_1017_4473)"></path><path d="M147.839 17.2557H144.334C144.246 17.2557 144.174 17.327 144.174 17.415V20.9146C144.174 21.0026 144.246 21.074 144.334 21.074H147.839C147.927 21.074 147.998 21.0026 147.998 20.9146V17.415C147.998 17.327 147.927 17.2557 147.839 17.2557Z" fill="url(#paint50_radial_1017_4473)"></path><path d="M147.839 25.8472H144.334C144.246 25.8472 144.174 25.9186 144.174 26.0066V29.5061C144.174 29.5942 144.246 29.6655 144.334 29.6655H147.839C147.927 29.6655 147.998 29.5942 147.998 29.5061V26.0066C147.998 25.9186 147.927 25.8472 147.839 25.8472Z" fill="url(#paint51_radial_1017_4473)"></path><path d="M139.235 17.2557H135.73C135.642 17.2557 135.571 17.327 135.571 17.415V20.9146C135.571 21.0026 135.642 21.074 135.73 21.074H139.235C139.323 21.074 139.395 21.0026 139.395 20.9146V17.415C139.395 17.327 139.323 17.2557 139.235 17.2557Z" fill="url(#paint52_radial_1017_4473)"></path><path d="M143.537 17.2557H140.032C139.944 17.2557 139.873 17.327 139.873 17.415V20.9146C139.873 21.0026 139.944 21.074 140.032 21.074H143.537C143.625 21.074 143.697 21.0026 143.697 20.9146V17.415C143.697 17.327 143.625 17.2557 143.537 17.2557Z" fill="url(#paint53_radial_1017_4473)"></path><path d="M147.839 12.9602H144.334C144.246 12.9602 144.174 13.0316 144.174 13.1196V16.6191C144.174 16.7072 144.246 16.7785 144.334 16.7785H147.839C147.927 16.7785 147.998 16.7072 147.998 16.6191V13.1196C147.998 13.0316 147.927 12.9602 147.839 12.9602Z" fill="url(#paint54_radial_1017_4473)"></path><path d="M9.48379 11.4237C9.17666 11.4859 8.57052 11.6529 8.02614 12.1638C7.2055 12.9316 7.108 13.9271 7.08687 14.1907C7.04787 14.6573 7.11937 15.0405 7.18275 15.2828C7.28025 14.9308 7.46225 14.5395 7.82138 14.2873C8.27639 13.968 8.6209 14.1563 9.0499 13.8027C9.22703 13.657 9.17503 13.6209 9.65279 12.7712C10.0525 12.0606 10.2134 11.8658 10.1224 11.6791C10.0867 11.6054 9.96967 11.4466 9.48379 11.4237Z" fill="#DF0022"></path><path d="M7.18444 15.5285C7.29332 15.5285 7.3892 15.4548 7.41845 15.35C7.52895 14.9538 7.71095 14.6657 7.96121 14.4905C8.13671 14.3677 8.29109 14.3382 8.46821 14.3055C8.68597 14.2645 8.9346 14.217 9.20435 13.9944C9.34898 13.8748 9.39285 13.7881 9.49848 13.5785C9.56836 13.441 9.67236 13.2347 9.86411 12.8941C9.94049 12.7566 10.0087 12.6387 10.0689 12.5372C10.3451 12.0591 10.4719 11.8413 10.3419 11.5728C10.2249 11.3321 9.94049 11.2012 9.49523 11.1799C9.47573 11.1799 9.45623 11.1799 9.43673 11.1848C9.0191 11.2683 8.40646 11.4746 7.86045 11.9854C7.27544 12.5323 6.91469 13.31 6.84481 14.1712C6.81231 14.5641 6.84644 14.9587 6.94881 15.3468C6.97644 15.4532 7.07232 15.5285 7.18282 15.5301H7.18444V15.5285ZM9.50336 11.6711C9.79424 11.6891 9.89174 11.7595 9.90474 11.7873C9.90474 11.843 9.78124 12.0591 9.64961 12.2883C9.58948 12.3915 9.52123 12.511 9.44161 12.6502C9.24498 13.0005 9.13773 13.2134 9.06623 13.3542C8.9671 13.5507 8.9606 13.5605 8.89722 13.6129C8.72172 13.757 8.57059 13.7864 8.37884 13.8225C8.17571 13.8601 7.94496 13.9043 7.68333 14.0877C7.54682 14.1827 7.42657 14.3005 7.32094 14.4381C7.32094 14.3628 7.3242 14.2874 7.3307 14.2121C7.39245 13.4721 7.69795 12.809 8.19358 12.3456C8.64209 11.9248 9.1491 11.748 9.50336 11.6727V11.6711Z" fill="black"></path><path d="M9.64155 10.258C9.19305 10.4561 9.04842 10.908 9.01592 11.0111C8.99642 11.0717 8.80304 11.7135 9.23205 12.2489C9.4888 12.5698 9.92756 12.8007 10.3874 12.7221C11.0375 12.6108 11.4746 11.9248 11.3998 11.314C11.3348 10.7901 10.914 10.497 10.8343 10.4397C10.7189 10.3595 10.1892 10.0157 9.64155 10.258Z" fill="#DF0022"></path><path d="M10.2102 12.9824C10.2833 12.9824 10.3564 12.9759 10.4279 12.9644C11.1689 12.8367 11.7361 12.0524 11.6402 11.2845C11.5898 10.8769 11.3526 10.5052 10.9707 10.24C10.7984 10.1188 10.1858 9.75041 9.54066 10.0353C9.1864 10.1925 8.91665 10.5118 8.78015 10.9374C8.75252 11.0209 8.53152 11.7725 9.03852 12.4045C9.33103 12.7696 9.77304 12.9841 10.2069 12.9841L10.2102 12.9824ZM10.0477 10.4201C10.345 10.4201 10.6051 10.5805 10.6944 10.6427C10.8488 10.7508 11.1137 10.9849 11.1576 11.3451C11.2144 11.8052 10.8797 12.3897 10.3467 12.4798C9.94691 12.5485 9.59753 12.3144 9.42041 12.095C9.07428 11.6628 9.22703 11.1454 9.24653 11.0881C9.34078 10.795 9.51141 10.5854 9.73891 10.4856C9.84291 10.4397 9.94691 10.4217 10.0477 10.4217V10.4201Z" fill="black"></path><path d="M23.9255 21.7321C24.426 22.7865 24.6844 24.0391 24.5349 25.2114C21.4766 35.5885 4.52916 30.6537 3.32501 27.4053C-0.901682 21.9351 1.66586 14.5772 6.54419 17.9402C6.22731 18.0531 5.24905 18.3953 5.45218 18.3266C6.88382 17.8452 9.27587 16.7695 11.7215 17.2116C12.3325 17.9385 12.469 18.0449 12.4658 18.0482C10.5385 16.4944 10.0283 12.8416 10.6116 10.7934C10.9838 9.48357 11.741 8.01328 13.0671 7.47298C13.5302 7.28469 14.0583 7.24703 14.5442 7.14224C14.0632 7.23393 13.5432 7.0833 13.1841 6.74929C13.0037 6.58065 12.8574 6.32687 12.9371 6.09274C13.0086 5.88481 13.2328 5.7702 13.4457 5.72435C14.0193 5.59828 14.6076 5.80294 15.1601 6.00269C14.9667 5.97813 14.7685 5.9503 14.5962 5.85697C14.424 5.76365 14.2809 5.58846 14.2842 5.39198C14.2858 5.22825 14.3898 5.07599 14.5263 4.9843C14.6628 4.89261 14.827 4.85495 14.9895 4.83858C15.451 4.7911 15.9287 4.90734 16.3171 5.1644C16.5722 5.33304 16.7884 5.56226 16.9476 5.82586C17.0175 5.94211 17.1004 6.07801 17.1117 6.21554C17.1215 6.34488 17.0906 6.48078 17.0987 6.61176C17.4319 6.60685 17.7601 6.55937 18.0965 6.57574C18.4345 6.59211 18.7709 6.63796 19.1024 6.71C19.7654 6.85408 20.4073 7.10459 20.9923 7.45333C22.1103 8.12134 23.0236 9.17739 23.3096 10.4758C23.5989 12.2244 23.698 16.6254 21.8942 17.6946C21.7902 17.7781 21.5806 17.8092 21.5351 17.932C21.5351 17.9582 23.2917 20.3928 23.9287 21.7305" fill="#FFD900"></path><path d="M22.6499 19.5807C22.5231 19.6773 22.489 19.7526 22.4874 19.8214C22.4858 19.995 22.7068 20.0605 22.7035 20.234C22.7003 20.455 22.3363 20.6302 22.0291 20.7432C22.3395 20.9462 22.814 21.3048 23.2333 21.8844C23.4657 22.2053 24.4537 23.5675 24.0523 24.7971C23.8183 25.5143 23.2999 25.6125 23.2333 26.3738C23.2235 26.4934 23.1862 27.0533 23.503 27.4839C23.9304 26.8241 24.2798 26.0726 24.5333 25.213C24.6828 24.0407 24.426 22.7882 23.9239 21.7338C23.6379 21.1312 23.1244 20.3093 22.6466 19.5824" fill="white"></path><path d="M5.45218 18.3266C5.74143 18.23 6.06972 18.1072 6.43048 17.9795C6.0811 18.1023 5.41809 18.3348 5.42459 18.3348C5.42459 18.3348 5.4343 18.3315 5.45218 18.3266ZM12.3456 18.122C12.2806 18.2235 11.9198 18.0172 11.8499 17.9894C11.4924 17.8469 11.1073 17.729 10.7222 17.711C10.0137 17.6783 9.30678 17.7863 8.62102 17.9599C7.94663 18.1318 7.28362 18.325 6.61573 18.528C6.16235 18.6656 5.71059 18.8031 5.25721 18.9406C5.17758 18.9652 5.09308 18.9897 5.01021 18.9799C4.92733 18.9701 4.84283 18.9177 4.8217 18.8358C4.79245 18.7212 4.8932 18.6181 4.98908 18.5477C5.12721 18.4445 5.27183 18.3528 5.42296 18.2726C5.50259 18.23 5.79347 18.1629 5.79347 18.0483C5.75772 17.7372 2.58566 17.4245 1.9519 18.6181C1.82515 18.8571 1.90315 18.9619 1.74715 19.237C1.66915 19.3745 1.56352 19.4989 1.44327 19.6086C2.10141 17.3377 4.01081 16.1916 6.54423 17.9386C7.93038 17.4491 9.76016 16.8875 11.6257 17.1953C12.1213 17.6079 12.4171 18.0123 12.3456 18.122Z" fill="white"></path><path d="M18.1323 6.58059C18.8733 7.07014 20.8786 7.44835 21.969 9.23955C22.8237 10.6443 22.8871 12.5403 22.9082 13.2083C22.9554 14.6197 22.6921 15.5791 23.0074 16.1112C23.6216 14.3364 23.5127 11.7299 23.3047 10.4773C23.0171 9.17897 22.1055 8.12292 20.9874 7.4549C20.4041 7.10616 19.7606 6.85565 19.0975 6.71157C18.779 6.64281 18.4557 6.5986 18.1306 6.58059" fill="white"></path><path d="M2.13224 18.1841C1.95023 19.2107 1.65123 20.8545 2.17611 22.6621C2.54987 23.9457 3.21938 24.9019 3.76539 25.5388C3.53626 24.4172 3.33476 23.0517 3.72964 22.8815C4.02539 22.7537 4.48365 23.3743 4.88666 23.7558C7.50945 26.2412 12.7144 23.2498 14.2452 25.321C14.8513 26.1413 14.5003 27.2432 14.4613 27.3594C14.0599 28.5596 12.5958 29.3733 10.74 29.4339C11.6825 29.8579 13.4343 30.4867 15.6541 30.3442C19.481 30.0986 21.9348 27.7426 22.5913 27.068C21.5009 27.2923 20.6267 27.0287 20.4235 26.5211C20.3829 26.418 20.3439 26.2428 20.4235 25.9743C20.8818 26.215 21.4928 26.4295 22.1688 26.3296C23.1617 26.1822 23.633 25.2948 23.7191 25.3963C23.8004 25.4929 23.2917 26.1839 23.4233 26.6292C23.4737 26.7978 23.6346 26.8813 23.8296 26.937C19.4729 34.9908 4.45765 30.4539 3.32663 27.4036C0.763964 24.0865 0.700589 20.0784 2.13386 18.1841" fill="#E4A02B"></path><path d="M22.5214 19.3875C21.47 19.9523 19.689 19.8066 17.3441 19.6151C17.0386 19.5905 16.4454 19.5217 16.2602 19.1419C16.1107 18.8357 16.3512 18.5819 16.2244 18.3412C15.9969 17.9106 14.9488 18.1775 14.1282 18.1595C13.1353 18.1366 12.3276 17.6929 11.6662 17.2033L11.6825 17.2066C10.8456 16.0327 10.4328 14.3823 10.389 12.8973C11.1251 15.0798 13.4651 16.4698 14.1639 16.8857C15.9319 17.9352 17.6853 18.2152 18.8976 18.2692C18.1566 18.3625 17.4952 18.1022 17.2352 17.6143C16.8663 16.9217 17.4725 16.0752 17.596 15.9033C18.5352 14.5919 21.1418 13.8027 22.6189 15.2124C22.8058 15.3909 22.9667 15.5971 23.0999 15.8198C22.8562 16.6597 22.4727 17.3523 21.8909 17.6978C21.7869 17.7813 21.5773 17.8124 21.5318 17.9352C21.5318 17.9483 21.9884 18.5885 22.5198 19.3891" fill="#E4A02B"></path><path d="M14.6157 31.6639C14.814 31.6639 15.0122 31.6606 15.2089 31.6541C20.1814 31.4822 23.5599 29.2145 24.7218 25.267C24.725 25.2572 24.7266 25.2474 24.7283 25.2359C24.8762 24.08 24.6535 22.8062 24.1026 21.647C23.5843 20.5582 22.3427 18.7653 21.8763 18.0908C21.8438 18.0449 21.8162 18.004 21.7935 17.9696C21.8032 17.9647 21.8146 17.9598 21.8227 17.9565C21.8812 17.9303 21.9462 17.9025 22.0031 17.8583C24.0588 16.6205 23.7078 11.6972 23.4998 10.4446C23.2202 9.18228 22.3427 8.03454 21.0898 7.2863C20.4902 6.92774 19.8337 6.67068 19.1414 6.52005C18.7969 6.44474 18.4475 6.39889 18.103 6.38252C17.8885 6.3727 17.6789 6.38579 17.4758 6.39889C17.4173 6.40217 17.3588 6.40708 17.3003 6.41035C17.3051 6.34322 17.31 6.27446 17.3035 6.20242C17.2889 6.02232 17.1946 5.8635 17.1166 5.73579C16.9379 5.43617 16.699 5.18566 16.4211 5.00229C15.9921 4.71903 15.477 4.59296 14.9667 4.64536C14.7392 4.66992 14.5589 4.72722 14.4158 4.82382C14.2127 4.95972 14.0892 5.17256 14.0876 5.39196C14.0876 5.43125 14.0908 5.47055 14.0973 5.50821C13.8698 5.48037 13.6358 5.48201 13.4035 5.53277C13.072 5.60481 12.8347 5.78655 12.7518 6.02886C12.6576 6.3072 12.7681 6.62975 13.0508 6.89335C13.1613 6.9965 13.2865 7.08492 13.4213 7.15532C13.2767 7.19134 13.1337 7.23391 12.9956 7.29121C11.4323 7.92812 10.714 9.72423 10.4264 10.7393C9.97302 12.3357 10.1664 15.07 11.2877 16.9512C9.54727 16.7629 7.89461 17.259 6.57347 17.7224C4.88831 16.5959 3.30066 16.6205 2.20539 17.7928C0.477989 19.6429 0.450365 23.9834 3.15441 27.5035C3.9068 29.4061 9.45302 31.6655 14.6157 31.6655V31.6639ZM24.3431 25.1704C22.9147 29.9922 18.5808 31.1432 15.1942 31.2611C9.71627 31.4494 4.11805 28.9853 3.50704 27.3365C3.50054 27.3185 3.49079 27.3005 3.47779 27.2841C0.877746 23.9179 0.866372 19.7968 2.48652 18.0613C3.39816 17.0855 4.67056 17.0282 6.10058 17.8877L5.55132 18.0809C5.4977 18.1006 5.45057 18.117 5.40832 18.1333C5.40182 18.135 5.39532 18.1383 5.39045 18.1399L5.37095 18.1464V18.1497C5.25069 18.2054 5.19544 18.2676 5.24094 18.3986C5.24744 18.4182 5.3092 18.582 5.51395 18.5132C5.71545 18.4461 5.93483 18.3658 6.17046 18.2807C7.60536 17.7633 9.56027 17.0609 11.5737 17.3851C11.7996 17.6929 12.0563 17.9696 12.3456 18.2021C12.4024 18.2479 12.4804 18.2578 12.5487 18.2283C12.6153 18.1972 12.6592 18.1317 12.6624 18.058C12.6657 17.9696 12.6153 17.9205 12.5893 17.8927C12.4382 17.742 12.1961 17.4702 11.8727 17.0855C11.8516 17.0609 11.8256 17.0429 11.7963 17.0298C10.5694 15.2632 10.3435 12.4519 10.8002 10.8474C11.0683 9.90269 11.7297 8.23102 13.1402 7.65633C13.4376 7.53517 13.7805 7.47787 14.1103 7.4222C14.2663 7.396 14.4289 7.36817 14.5849 7.33542C14.6889 7.3125 14.7571 7.20935 14.736 7.10456C14.7149 6.99814 14.6125 6.93101 14.5085 6.95066C14.0876 7.03089 13.631 6.8999 13.3173 6.60683C13.1955 6.49385 13.072 6.3072 13.1223 6.15821C13.1776 5.99776 13.4165 5.9339 13.488 5.91753C13.7837 5.85368 14.0957 5.8897 14.398 5.96337C14.4321 5.98793 14.4662 6.01085 14.5052 6.03214C14.7116 6.14348 14.9375 6.17295 15.1374 6.19914C15.2365 6.21224 15.3291 6.14839 15.3519 6.05015C15.3746 5.95191 15.3226 5.85368 15.2284 5.81929C15.0285 5.74725 14.8107 5.66702 14.5816 5.60481C14.5231 5.5475 14.4809 5.47382 14.4809 5.39687C14.4809 5.3101 14.5426 5.2135 14.6352 5.15128C14.7246 5.0907 14.8481 5.05304 15.0106 5.03667C15.425 4.99246 15.8637 5.10052 16.2115 5.33138C16.4406 5.48201 16.6373 5.68995 16.7819 5.93063C16.8453 6.03705 16.9119 6.14839 16.9184 6.23516C16.9233 6.28592 16.9184 6.34486 16.9119 6.40708C16.9054 6.47748 16.8989 6.54952 16.9038 6.62647C16.9103 6.73126 16.9948 6.81149 17.0988 6.81149C17.0988 6.81149 17.1004 6.81149 17.102 6.81149C17.2369 6.80985 17.3701 6.80003 17.5034 6.79184C17.7049 6.77874 17.895 6.76564 18.0868 6.77547C18.4102 6.7902 18.7368 6.83441 19.0618 6.90481C19.7134 7.04562 20.3293 7.28794 20.8932 7.62522C22.0551 8.31779 22.866 9.37385 23.1195 10.5216C23.4445 12.4912 23.3925 16.5812 21.7967 17.5292C21.7886 17.5341 21.7805 17.539 21.774 17.5456C21.7545 17.5603 21.709 17.5816 21.6683 17.5996C21.5595 17.6471 21.41 17.7142 21.3531 17.8681C21.345 17.891 21.3401 17.9156 21.3417 17.9418C21.3417 17.9843 21.4143 18.1099 21.5595 18.3184C22.021 18.9864 23.2495 20.7612 23.7549 21.8205C24.2716 22.906 24.4813 24.098 24.348 25.1737L24.3431 25.1704Z" fill="black"></path><path d="M24.7753 15.8772C24.8338 16.262 24.3317 16.6271 24.0294 16.8481C23.6833 17.1003 23.3047 17.2935 22.4158 17.5882C21.5821 17.8649 21.1645 18.0024 20.8265 18.0368C19.8661 18.135 19.1527 17.8845 18.5856 17.6848C17.8088 17.4113 17.6171 17.1756 17.5261 17.0299C17.5115 17.0069 17.1783 16.4601 17.3701 16.0835C17.6577 15.5137 18.7936 16.0115 20.6819 15.7806C22.406 15.5694 23.4964 14.9047 24.3788 15.4171C24.4844 15.4793 24.738 15.63 24.777 15.8788" fill="#FF1A46"></path><path d="M20.396 18.2562C20.539 18.2562 20.6885 18.2496 20.8461 18.2333C21.2052 18.1972 21.631 18.0564 22.4776 17.7748C23.4185 17.4637 23.802 17.2574 24.1449 17.0069C24.4829 16.7613 25.0468 16.3504 24.9704 15.8477C24.9184 15.5023 24.5869 15.3091 24.478 15.2468C23.8378 14.8752 23.1325 15.0504 22.2387 15.2698C21.7772 15.3844 21.254 15.5121 20.6592 15.5858C19.8662 15.6824 19.2129 15.6496 18.6864 15.6218C17.9503 15.5841 17.4189 15.5563 17.1963 15.9951C16.9574 16.4666 17.3198 17.0675 17.362 17.1346C17.4839 17.3311 17.7277 17.5914 18.5223 17.8714C19.0196 18.0466 19.6176 18.2562 20.396 18.2562ZM23.6184 15.4237C23.8621 15.4237 24.0799 15.4695 24.283 15.5874C24.3513 15.6267 24.5609 15.7495 24.5853 15.9083C24.6259 16.1735 24.1644 16.5092 23.9174 16.6893C23.6038 16.9169 23.2495 17.1068 22.3557 17.4031C21.5367 17.6749 21.1256 17.8108 20.8071 17.8436C19.8889 17.9369 19.2032 17.6946 18.6507 17.5014C17.882 17.2312 17.7439 17.0102 17.6919 16.9267C17.6155 16.8055 17.427 16.406 17.544 16.1735C17.6464 15.9705 17.999 15.9803 18.6653 16.0147C19.2064 16.0426 19.8792 16.0769 20.7047 15.9771C21.3222 15.9018 21.8585 15.7691 22.3297 15.6529C22.8335 15.5285 23.2528 15.4253 23.6168 15.4253L23.6184 15.4237Z" fill="black"></path><path d="M25.5472 16.4355C25.9421 16.1948 25.9892 15.4744 25.5115 15.1125C25.2921 14.8997 24.7266 14.8064 24.1806 14.7425C24.0766 14.731 23.7954 14.7278 23.4168 14.659C23.2218 14.623 23.0642 14.5837 22.9586 14.5559C22.5328 14.1973 21.2994 13.3279 20.5031 13.5702C20.1993 13.6635 19.9116 13.9173 19.6581 14.4232C19.0747 15.4203 18.7465 15.124 17.7796 15.4662C17.245 15.6332 17.0565 16.3389 17.6707 16.4977C18.2476 16.7596 20.17 17.3982 20.3081 17.372C21.886 17.6143 22.9098 15.9688 24.1026 15.8673C24.3658 15.905 25.0483 16.609 25.5472 16.4371" fill="#FF1A46"></path><path d="M25.4449 16.4585C25.4806 16.2784 25.5359 16.0459 25.505 15.8052C25.453 15.4057 25.0175 15.3189 24.6974 15.2534C24.3268 15.1765 23.607 15.1339 22.9066 15.3156C21.7122 15.6251 21.4798 15.8035 21.4375 15.7397C21.3563 15.6169 21.9511 15.2878 22.5019 15.1044C22.7684 15.016 22.9895 14.8179 23.2787 14.6329C23.3226 14.6427 23.3681 14.6508 23.4168 14.659C23.7954 14.7278 24.0766 14.731 24.1806 14.7425C24.7266 14.8064 25.2921 14.8997 25.5115 15.1125C25.9909 15.4744 25.9421 16.1948 25.5472 16.4355C25.5147 16.4469 25.4806 16.4552 25.4449 16.4585Z" fill="white"></path><path d="M22.9668 14.8441C22.7133 14.8638 22.3005 14.5805 21.852 14.3366C21.4409 14.1123 21.1077 13.9322 20.7324 13.9813C20.5585 14.0042 20.1278 14.1139 19.8175 14.1401C20.0287 13.8176 20.2595 13.6424 20.5016 13.5687C20.5959 13.5392 20.6966 13.5261 20.8022 13.5261C21.579 13.5261 22.5816 14.2383 22.957 14.5543C23.0106 14.5691 23.0773 14.5871 23.1569 14.6051C23.139 14.7328 23.1016 14.8327 22.9668 14.8441Z" fill="white"></path><path d="M20.6235 17.5898C21.449 17.5898 22.1266 17.133 22.7328 16.7253C23.2008 16.4093 23.6444 16.1114 24.0897 16.0622C24.1498 16.0835 24.2863 16.1719 24.3887 16.2391C24.7267 16.4601 25.1914 16.763 25.6107 16.6205L25.6481 16.6025C25.8837 16.4585 26.0348 16.185 26.0494 15.8674C26.0673 15.5121 25.9129 15.1748 25.6367 14.9603C25.3686 14.7115 24.7884 14.6132 24.2018 14.5445C24.1725 14.5412 24.1303 14.5379 24.0783 14.5346C23.9353 14.5248 23.7208 14.5117 23.4494 14.4626C23.3129 14.438 23.178 14.4086 23.048 14.3726C22.775 14.1482 21.4067 13.084 20.4447 13.3771C20.0596 13.495 19.7443 13.806 19.4827 14.33C19.1203 14.9489 18.9091 14.9914 18.4459 15.0848C18.2509 15.1241 18.0088 15.1732 17.7131 15.2763C17.3474 15.3909 17.0825 15.7282 17.0907 16.0786C17.0972 16.3684 17.2889 16.5927 17.6042 16.6795C18.0023 16.8563 19.8451 17.5194 20.2773 17.5604C20.3944 17.58 20.5097 17.5882 20.6219 17.5882L20.6235 17.5898ZM24.1075 15.666H24.0864C23.5323 15.7151 23.0383 16.0475 22.5166 16.3979C21.8569 16.8416 21.1744 17.3017 20.3375 17.174L20.3033 17.169L20.2887 17.1723C20.0401 17.1412 18.2997 16.5665 17.7504 16.316L17.7179 16.3046C17.5636 16.2653 17.4839 16.185 17.4807 16.0704C17.4774 15.9198 17.6091 15.7217 17.8349 15.6513C18.1112 15.553 18.3289 15.5105 18.5207 15.4712C19.0115 15.3729 19.3673 15.3009 19.824 14.5199C20.0417 14.086 20.279 13.8404 20.5569 13.7553C21.1727 13.567 22.255 14.2203 22.8303 14.7049L22.8628 14.7328L22.9034 14.7442C23.0578 14.7868 23.217 14.8228 23.3779 14.8523C23.6704 14.9047 23.9077 14.921 24.0507 14.9309C24.0945 14.9341 24.1303 14.9358 24.1547 14.9391C24.4309 14.9718 25.1671 15.0569 25.3734 15.2567L25.3913 15.2714C25.5701 15.4057 25.6692 15.6234 25.6578 15.851C25.6497 16.0246 25.5749 16.1785 25.4612 16.2571C25.2223 16.3209 24.8615 16.0852 24.5983 15.9132C24.4082 15.7888 24.2587 15.6922 24.1254 15.6726L24.1043 15.6693L24.1075 15.666Z" fill="black"></path><path d="M14.562 24.0915C14.497 23.6576 14.2874 22.6802 13.496 21.8157C13.3969 21.7076 12.9126 21.1919 12.0871 20.8153C11.3445 20.4764 10.6132 20.4453 9.17831 20.3961C8.87118 20.3863 8.03917 20.4011 6.37839 20.4322C5.95588 20.4404 3.84335 20.293 3.64997 21.1608C3.55247 21.5979 4.49498 22.5394 5.01662 22.5017C4.98899 22.4821 4.50636 22.3756 4.20898 22.4166C4.18623 22.4198 3.9181 22.5361 3.83035 22.7981C3.67434 23.2565 4.19923 23.787 4.46248 24.0539C4.63636 24.229 4.91749 24.5074 5.38387 24.6547C5.66338 24.7431 5.88113 24.789 6.04363 24.7824C5.71863 24.6089 5.33675 24.5876 4.89637 24.6727C4.82324 24.6875 4.75499 24.7628 4.71599 24.8545C4.55836 25.2229 5.21487 25.8303 5.43912 26.0382C5.7625 26.3379 6.85452 27.2744 8.98006 27.6952C9.75032 27.8474 10.3093 27.9588 11.0763 27.8409C11.5395 27.7705 12.664 27.5806 13.5513 26.6211C13.7674 26.387 14.3313 25.7157 14.5084 24.7104C14.5523 24.4583 14.562 24.2438 14.562 24.0915Z" fill="#FBDF46"></path><path d="M14.432 25.046C14.3069 24.8086 14.1281 24.5466 13.8762 24.2666C13.7495 24.8266 13.5268 25.2261 13.3107 25.511C11.9441 27.3005 8.80126 27.086 6.87885 26.2756C5.98996 25.9006 5.14332 25.3063 5.21645 25.1098C5.29608 24.897 6.4596 25.1442 6.48072 25.0378C6.50022 24.9379 5.46345 24.8773 4.85407 24.1274C4.54694 23.7492 4.31781 23.1582 4.52906 22.8536C4.75657 22.5245 5.38545 22.6784 5.39683 22.5982C5.40658 22.5213 4.83945 22.2495 4.22844 22.1267C4.37956 22.2577 4.54369 22.3657 4.69807 22.4328C4.54044 22.4099 4.35356 22.3952 4.21056 22.4165C4.18781 22.4197 3.91968 22.536 3.83193 22.798C3.67593 23.2564 4.20081 23.7869 4.46406 24.0538C4.62657 24.2175 4.88332 24.4729 5.29933 24.6252C5.17095 24.6301 5.0377 24.6448 4.89795 24.6727C4.82482 24.6874 4.75657 24.7627 4.71757 24.8544C4.55994 25.2228 5.21645 25.8302 5.4407 26.0382C5.76409 26.3378 6.8561 27.2743 8.98164 27.6951C9.7519 27.8474 10.3109 27.9587 11.0779 27.8408C11.5411 27.7688 12.6656 27.5805 13.5528 26.621C13.7446 26.4131 14.2077 25.8646 14.4352 25.046" fill="#E4A02B"></path><path d="M13.8779 24.2666C13.5984 22.893 12.4983 22.1791 12.1538 21.9564C11.3673 21.4472 10.5304 21.272 8.41946 21.2769C7.21207 21.2802 5.62766 21.3424 3.75726 21.5749C3.66951 21.421 3.62397 21.2737 3.64997 21.1608C3.81735 20.4076 5.42941 20.419 6.12817 20.4305C6.23542 20.4321 6.32155 20.4337 6.3768 20.4321C7.69145 20.4075 8.48609 20.3928 8.91347 20.3928C9.0256 20.3928 9.11335 20.3928 9.17673 20.3961C10.6116 20.4452 11.3429 20.4763 12.0855 20.8152C12.911 21.1918 13.3953 21.7076 13.4944 21.8156C14.2874 22.6801 14.4954 23.6576 14.5604 24.0914C14.5604 24.2437 14.5507 24.4582 14.5068 24.7103C14.3979 25.3325 14.1412 25.8253 13.9088 26.1675C13.7853 26.2068 13.6748 26.2609 13.6472 26.2871C13.7918 25.9465 14.0599 25.1819 13.8747 24.2666" fill="white"></path><path d="M10.4442 28.0881C10.6522 28.0881 10.8683 28.0717 11.1056 28.0357C11.5102 27.9735 12.742 27.7852 13.6943 26.7553C13.9949 26.4295 14.5263 25.7353 14.7018 24.7447C14.7391 24.5302 14.7586 24.3108 14.7586 24.0914L14.7571 23.8508C14.6596 23.2172 14.3914 22.5 13.6406 21.683C13.4619 21.4882 12.9614 20.997 12.1684 20.6368C11.3753 20.2749 10.597 20.2487 9.18643 20.2012C8.87605 20.1898 8.04891 20.2062 6.39951 20.2373H6.37513C6.32801 20.2373 6.25976 20.2373 6.17363 20.2373C5.42287 20.2242 3.66621 20.1963 3.45983 21.1198C3.38996 21.4341 3.65159 21.7992 3.81246 21.9892C3.89209 22.0825 3.98309 22.1742 4.0806 22.261C3.94572 22.3264 3.73284 22.4787 3.64509 22.7374C3.45008 23.3105 4.03997 23.9081 4.32272 24.1962C4.4121 24.2863 4.54048 24.4156 4.71923 24.5433C4.64285 24.5957 4.57785 24.6792 4.5356 24.7807C4.34873 25.2212 4.84923 25.7631 5.30586 26.1855C5.81125 26.6538 6.95527 27.497 8.94105 27.89C9.49844 27.9997 9.94694 28.0881 10.4426 28.0881H10.4442ZM14.3686 24.1062C14.3686 24.2977 14.3508 24.4893 14.3183 24.676C14.1623 25.5666 13.6813 26.1937 13.4099 26.4868C12.5502 27.4151 11.4598 27.5838 11.0487 27.646C10.3158 27.759 9.77306 27.6509 9.02068 27.5019C7.12915 27.127 6.0485 26.3329 5.57399 25.8941C4.85248 25.2261 4.87523 24.9903 4.89798 24.933C4.91586 24.8904 4.93861 24.8675 4.94674 24.8626C5.06049 24.8413 5.16774 24.8282 5.27011 24.8233C5.28962 24.8299 5.30912 24.8364 5.32862 24.843C5.6455 24.9428 5.87625 24.9854 6.05338 24.9789L6.77977 24.951L6.13625 24.6088C5.90225 24.4844 5.63575 24.4222 5.33349 24.4287C4.96786 24.2863 4.74198 24.0571 4.60223 23.9163C4.3926 23.7034 3.90022 23.2057 4.01559 22.8618C4.06759 22.7079 4.2171 22.6277 4.25772 22.6081C4.37147 22.595 4.51935 22.6081 4.64773 22.6244C4.77936 22.6785 4.91098 22.7047 5.03123 22.6965L5.56749 22.6572L5.13036 22.3412C5.08161 22.3068 4.92723 22.2659 4.74685 22.2397C4.54535 22.1447 4.30322 21.9564 4.10822 21.7288C3.89859 21.4832 3.82222 21.2835 3.84009 21.2016C3.97659 20.5909 5.62437 20.6171 6.16713 20.6253C6.25813 20.6253 6.33126 20.6286 6.38163 20.6269H6.40601C8.04729 20.5958 8.87117 20.5811 9.17181 20.5909C10.636 20.64 11.3136 20.6761 12.0059 20.9921C12.7339 21.3244 13.1905 21.7714 13.353 21.9482C14.029 22.6867 14.2793 23.3531 14.3686 23.9326V24.1062Z" fill="black"></path><path d="M20.6965 14.8097C20.6461 14.9669 20.7599 15.1732 20.9224 15.183C21.0524 15.1912 21.1824 15.0716 21.1938 14.9276C21.2052 14.7737 21.0784 14.6263 20.9321 14.6279C20.8216 14.6279 20.7274 14.7147 20.6965 14.8097Z" fill="black"></path><path d="M22.1688 15.2255C22.6254 15.083 23.0252 14.9177 23.4916 14.8931C23.9579 14.898 24.4487 14.9144 24.9216 14.8882C24.4503 14.7507 23.9904 14.6721 23.4997 14.6148C22.9894 14.5624 22.4645 14.808 22.1704 15.2255" fill="black"></path><path d="M11.1414 10.5314C10.896 10.556 9.88039 10.6575 9.00937 10.0402C8.62749 9.77007 8.38211 9.43771 8.25048 9.2576C7.86535 8.72876 7.6866 8.20974 7.60047 7.87409C7.9726 7.89211 8.50561 7.87409 9.11825 7.71037C9.64963 7.56792 10.0689 7.35999 10.3646 7.18316C10.4946 6.78694 10.7222 6.21552 11.1235 5.5999C11.858 4.47508 12.7453 3.86601 13.5269 3.34208C14.554 2.65278 15.1699 2.24019 16.1465 2.05026C16.6519 1.95202 18.2558 1.6393 19.4339 2.50543C19.8158 2.78704 20.2627 3.27168 20.8964 3.96098C21.397 4.50456 21.579 4.75506 21.9803 4.8533C22.4386 4.96463 22.9635 4.82219 23.3177 4.72559C23.5631 4.65846 23.7597 4.58315 23.8962 4.52584C23.906 4.7567 23.9044 5.09234 23.8426 5.4902C23.7727 5.929 23.6379 6.79512 23.0659 7.3649C22.6076 7.8217 22.0275 7.92813 21.6927 7.98379C18.2412 8.55193 16.1757 7.65634 14.1233 8.71239C12.7583 9.41478 12.5406 10.3922 11.143 10.5331" fill="black"></path><path d="M23.7418 6.0272C23.3599 6.15982 22.7733 6.29735 22.0729 6.21385C20.9175 6.07632 20.2155 5.43286 19.7491 5.00389C19.0991 4.40792 19.1511 4.13122 19.1722 4.05427C19.2193 3.89218 19.3688 3.79066 19.4923 3.72845L19.5151 3.735C19.5411 3.75956 19.5785 3.79558 19.6256 3.83978C20.1813 4.37845 20.4527 4.74848 20.6347 4.94659C21.1937 5.55402 21.99 5.71775 22.1216 5.74395C22.8594 5.88639 23.4948 5.67355 23.8393 5.51637C23.8182 5.65554 23.7889 5.83236 23.7418 6.0272Z" fill="#332121"></path><path d="M10.74 10.7967C10.8749 10.7967 11.0179 10.7901 11.1658 10.7754C12.0726 10.6853 12.5373 10.2629 13.0297 9.81592C13.3612 9.51466 13.7057 9.20194 14.2338 8.93015C15.3405 8.36037 16.4536 8.38657 17.8642 8.42095C18.9643 8.44715 20.2123 8.47662 21.7333 8.22612C22.0502 8.17372 22.71 8.06566 23.2381 7.54009C23.867 6.91465 24.0133 5.97976 24.0848 5.5295C24.1368 5.19549 24.1563 4.8533 24.1416 4.51438C24.1384 4.43416 24.0961 4.36048 24.0279 4.31791C23.9596 4.27534 23.8768 4.26715 23.802 4.2999C23.6249 4.37521 23.4413 4.43907 23.256 4.48982C22.9294 4.57824 22.437 4.71249 22.0389 4.61589C21.761 4.54877 21.6131 4.38504 21.254 3.98881C21.1987 3.92823 21.1402 3.86438 21.0768 3.79561C20.4398 3.10304 19.9799 2.60367 19.5786 2.30732C18.3127 1.3757 16.647 1.70152 16.0994 1.80795C15.0756 2.00769 14.4419 2.43175 13.3921 3.13742C12.6364 3.64335 11.6972 4.2737 10.9204 5.46401C10.6068 5.94537 10.3517 6.46767 10.1632 7.01616C9.81377 7.21591 9.44164 7.36981 9.05489 7.47296C8.58363 7.59903 8.09937 7.65143 7.61186 7.62851C7.53386 7.62523 7.45911 7.65798 7.41036 7.71856C7.36161 7.77914 7.34373 7.85936 7.36323 7.93468C7.50136 8.47007 7.73374 8.9629 8.05224 9.40169C8.179 9.57688 8.44388 9.94036 8.86801 10.24C9.24176 10.5052 9.8544 10.7967 10.7384 10.7967H10.74ZM16.9623 7.91339C15.9141 7.91339 14.9602 8.00344 14.0112 8.49136C13.4246 8.79262 13.0411 9.14136 12.7014 9.45081C12.2334 9.8765 11.8646 10.2121 11.117 10.2858C10.1502 10.3824 9.51314 10.0959 9.14914 9.83721C8.79163 9.58343 8.55925 9.26416 8.44712 9.11025C8.22775 8.80899 8.05387 8.47826 7.93037 8.12297C8.35287 8.11478 8.77213 8.05584 9.18001 7.94614C9.63827 7.82334 10.0787 7.63669 10.4882 7.39274C10.5385 7.36326 10.5775 7.31415 10.5954 7.25848C10.7725 6.71817 11.0179 6.20406 11.3267 5.73253C12.0498 4.62572 12.9436 4.02647 13.6602 3.54511C14.6937 2.85254 15.2625 2.47105 16.1904 2.28931C16.686 2.19271 18.1957 1.898 19.2877 2.7019C19.6517 2.96878 20.0969 3.45342 20.7145 4.12635C20.7778 4.19511 20.8363 4.25897 20.89 4.31955C21.2816 4.75179 21.4977 4.9892 21.9219 5.09235C22.4402 5.21842 23.0057 5.06451 23.3795 4.963C23.4705 4.93844 23.5615 4.91061 23.6525 4.8795C23.646 5.07106 23.6281 5.26262 23.5989 5.45091C23.5306 5.87988 23.4055 6.67724 22.892 7.18971C22.4744 7.60558 21.9381 7.694 21.6505 7.74148C20.1749 7.9838 18.9513 7.95596 17.8723 7.92977C17.5603 7.92322 17.2564 7.91503 16.9606 7.91503L16.9623 7.91339Z" fill="black"></path><path d="M22.9749 9.11848C22.6482 8.86961 22.0974 8.52578 21.3612 8.41445C21.0086 8.36042 20.7372 8.38006 20.591 8.38989C18.2964 8.55853 17.1492 8.64203 15.9174 8.97276C14.3785 9.38536 13.2735 9.91584 12.2074 10.4283C11.4941 10.7721 10.9107 11.0898 10.4963 11.3255C10.48 10.9048 10.4638 10.484 10.4475 10.0632C10.8684 9.73738 11.2178 9.50324 11.4226 9.37226C15.8004 6.53975 20.5065 6.90814 21.9852 7.09152C22.229 7.12263 22.4224 7.1521 22.5036 7.16356C22.6271 7.47464 22.749 7.84467 22.8416 8.26709C22.9082 8.57326 22.9505 8.85979 22.9749 9.11684" fill="#DF0022"></path><path d="M10.4979 11.5711C10.5402 11.5711 10.5808 11.5613 10.6182 11.5384C11.1674 11.224 11.7378 10.9244 12.3131 10.6477C13.3693 10.1401 14.463 9.61456 15.9808 9.20688C17.1882 8.8827 18.3305 8.79919 20.6072 8.63219C20.734 8.62237 20.994 8.60436 21.3271 8.65348C21.8552 8.7337 22.3622 8.95474 22.8302 9.31003C22.9082 9.36897 23.0123 9.37552 23.0968 9.32804C23.1813 9.28056 23.23 9.18723 23.2203 9.09063C23.1926 8.79756 23.1471 8.50121 23.0838 8.21141C22.9993 7.82337 22.8806 7.43861 22.7344 7.06858C22.7019 6.98835 22.6304 6.93105 22.5459 6.91631C22.463 6.90321 22.268 6.87374 22.021 6.84263C20.2188 6.61996 15.568 6.39893 11.2974 9.16103C10.9627 9.37716 10.6295 9.61456 10.3045 9.86507C10.2412 9.91419 10.207 9.9895 10.2087 10.0697L10.2574 11.3321C10.2607 11.4172 10.3078 11.4958 10.3825 11.5367C10.4199 11.558 10.4605 11.5678 10.5012 11.5678L10.4979 11.5711ZM20.8802 8.13118C20.747 8.13118 20.643 8.13937 20.5731 8.14428C18.2655 8.31292 17.1069 8.39806 15.8556 8.7337C14.294 9.15285 13.1808 9.68824 12.1034 10.2056C11.6387 10.4299 11.1772 10.6673 10.727 10.9162L10.6994 10.1811C10.9805 9.96658 11.2698 9.76519 11.5591 9.57854C15.6964 6.90158 20.2107 7.1177 21.9609 7.33382C22.1087 7.35183 22.2371 7.36984 22.333 7.38458C22.4467 7.68911 22.5394 8.00347 22.6076 8.31947C22.6287 8.41771 22.6482 8.51594 22.6661 8.61582C22.2631 8.3866 21.8406 8.23597 21.4018 8.17047C21.202 8.13937 21.0265 8.13118 20.8835 8.13118H20.8802Z" fill="black"></path><path d="M7.9677 8.40466C7.9677 8.40466 7.97908 8.40466 7.98558 8.40466C9.65773 8.28514 10.9155 7.78085 11.7231 6.90654C11.871 6.74608 11.9506 6.63311 12.0823 6.44646C12.2171 6.2549 12.4203 5.9651 12.833 5.43462C13.6553 4.3802 14.0681 3.85136 14.4759 3.53536L14.4987 3.51735C14.7961 3.28649 15.698 2.58573 17.0159 2.57919C17.0272 2.57919 17.0386 2.57919 17.0484 2.57919C18.8765 2.57919 19.7069 3.50262 20.4398 4.31799C21.236 5.20376 21.9901 6.04205 23.7028 5.2496C23.8247 5.1923 23.8783 5.04658 23.8231 4.92378C23.7662 4.80099 23.6216 4.74696 23.4997 4.80262C22.1103 5.44444 21.5903 4.86484 20.8005 3.98725C20.0384 3.14078 19.0926 2.08636 17.0467 2.08636C17.0354 2.08636 17.0224 2.08636 17.011 2.08636C16.0278 2.09291 15.0821 2.44165 14.1997 3.12768L14.1786 3.14405C13.7219 3.4977 13.2962 4.04128 12.4512 5.12681C12.0286 5.66875 11.8206 5.9651 11.6841 6.16157C11.5606 6.3384 11.4924 6.435 11.3673 6.57089C10.6457 7.35024 9.49685 7.80214 7.95145 7.91347C7.81658 7.9233 7.71582 8.04118 7.72557 8.17544C7.73532 8.30478 7.84095 8.40302 7.9677 8.40302V8.40466Z" fill="white"></path><path d="M17.1702 11.2077C16.9444 11.3796 16.7999 11.4873 16.6358 11.7198C16.5253 11.4463 16.5495 11.2274 16.751 11.0161C16.8371 10.9245 16.946 10.8573 17.0565 10.8C17.6188 10.5102 18.3045 10.4742 18.8928 10.7051C18.9415 10.7247 18.9903 10.746 19.0277 10.7837C19.0715 10.8295 19.0992 10.9163 19.0423 10.9654C18.9935 11.008 18.9561 10.9785 18.9041 10.9588C18.7644 10.9064 18.6214 10.8704 18.4719 10.8541C18.1761 10.8213 17.8739 10.8606 17.596 10.9687C17.4432 11.0276 17.2986 11.1078 17.167 11.2077" fill="black"></path><path d="M23.2219 10.2875C23.4851 10.3481 23.7305 10.4693 23.9629 10.6068C23.9532 10.3268 23.7679 10.0616 23.5095 9.9568C23.399 9.91259 23.2788 9.89622 23.1601 9.88967C22.5605 9.85856 21.9527 10.0992 21.5335 10.5315C21.4994 10.5675 21.4652 10.6052 21.4474 10.6526C21.4262 10.71 21.4376 10.7967 21.5042 10.8164C21.5627 10.8344 21.5839 10.7935 21.6212 10.7558C21.7236 10.6559 21.8325 10.5675 21.9544 10.4955C22.1981 10.3514 22.476 10.2662 22.7588 10.2499C22.9148 10.2417 23.0708 10.2531 23.2235 10.2875" fill="black"></path><path d="M13.6921 13.1675L14.2707 13.1134L14.3243 13.6956L14.9029 13.6415L14.9565 14.2237L15.5351 14.1696L15.5887 14.7518L19.0603 14.4273L19.0067 13.8451L19.5853 13.791L19.5317 13.2088L20.1103 13.1547L20.0567 12.5726L21.2138 12.4644L21.2674 13.0466L21.846 12.9925L21.8996 13.5747L25.9501 13.1961L25.8964 12.6139L26.475 12.5598L26.4214 11.9776L27 11.9235L26.8928 10.7592L13.5849 12.0031L13.6921 13.1675Z" fill="black"></path><path d="M14.7957 12.4771L14.8493 13.0593L15.4279 13.0052L15.3743 12.4231L14.7957 12.4771ZM15.4279 13.0052L15.4815 13.5874L16.0601 13.5333L16.0065 12.9512L15.4279 13.0052ZM16.0065 12.9512L16.5851 12.8971L16.5315 12.3149L15.9529 12.369L16.0065 12.9512ZM16.5851 12.8971L16.6387 13.4793L17.2173 13.4252L17.1637 12.843L16.5851 12.8971ZM17.2173 13.4252L17.2709 14.0074L17.8495 13.9533L17.7958 13.3711L17.2173 13.4252ZM16.6387 13.4793L16.0601 13.5333L16.1137 14.1155L16.6923 14.0614L16.6387 13.4793Z" fill="white"></path><path d="M21.7392 11.8281L22.3177 11.774L22.3714 12.3562L22.9499 12.3021L22.8963 11.7199L23.4749 11.6658L23.5285 12.248L24.1071 12.1939L24.1607 12.7761L23.5821 12.8302L23.5285 12.248L22.9499 12.3021L23.0035 12.8843L22.425 12.9384L22.3714 12.3562L21.7928 12.4103L21.7392 11.8281Z" fill="white"></path><path d="M15.8921 4.0504C15.8921 4.0504 15.497 4.79149 16.7695 5.61779C18.042 6.44409 19.0169 5.70608 19.0169 5.70608C19.0169 5.70608 19.2922 5.42748 19.1384 5.26281C19.0969 5.2184 19.037 5.19769 18.9776 5.20484C18.709 5.23728 17.4864 5.36764 16.4803 4.28214C16.4803 4.28214 16.352 4.09027 16.0405 3.98856C16.0405 3.98856 15.9986 3.68178 15.9161 3.76681C15.8336 3.85184 15.8395 3.88984 15.8921 4.0504Z" fill="#FFD900"></path><path d="M16.6026 4.62045C16.6026 4.62045 16.7112 5.05472 17.5083 5.34277C18.3054 5.63083 18.8151 5.49055 18.8822 5.36047C18.8822 5.36047 18.0328 5.42105 17.4899 5.17965C16.9471 4.93826 16.6026 4.62045 16.6026 4.62045Z" fill="black"></path><path d="M17.1086 4.6801C17.1086 4.6801 17.397 4.35046 17.5618 4.06503C17.5739 4.04406 17.7245 3.89744 17.8469 3.84035C17.8469 3.84035 17.8714 3.81985 17.889 3.60948C17.889 3.60948 17.8807 3.5445 17.9576 3.5893C18.0346 3.6341 18.0303 3.68216 18.0303 3.68216L18.0269 3.80953C18.0269 3.80953 18.0129 3.84038 18.0495 3.88223C18.0862 3.92408 18.3222 4.46234 17.8997 5.02996C17.8997 5.02996 17.4783 4.90789 17.3403 4.82354C17.3403 4.82354 17.4519 4.62836 17.437 4.54055L17.2478 4.77797L17.1086 4.6801Z" fill="#FFD900"></path><path d="M16.3726 5.42902L16.2324 5.29727C16.2324 5.29727 15.7329 5.5629 15.265 5.55556C15.265 5.55556 14.9364 5.5757 15.0646 5.8606C15.1929 6.1455 15.8231 6.21441 15.8231 6.21441C15.8231 6.21441 16.5421 6.29071 17.0576 5.89196C17.0576 5.89196 16.6359 5.67377 16.487 5.52015C16.487 5.52015 15.57 5.98459 15.3166 5.70487C15.3166 5.70487 15.8599 5.69363 16.3726 5.42902Z" fill="#FFD900"></path><path fill-rule="evenodd" clip-rule="evenodd" d="M24.1986 5.3721C24.1257 5.83118 23.9758 6.77441 23.3404 7.40632C23.253 7.49326 23.1621 7.56894 23.0697 7.63496C23.1126 7.78486 23.1507 7.93593 23.1837 8.08748C23.2481 8.38154 23.2942 8.68223 23.3223 8.97961C23.332 9.07602 23.2843 9.16921 23.2011 9.21809C23.1997 9.2189 23.1983 9.21971 23.1969 9.2205L23.1939 9.22216C23.1923 9.22304 23.1907 9.22391 23.189 9.22475L23.1857 9.22644C23.1992 9.25172 23.2125 9.2771 23.2254 9.30256C23.251 9.35254 23.2755 9.40285 23.2991 9.4535C23.3538 9.57104 23.4033 9.69034 23.4473 9.81113C23.4586 9.8132 23.4698 9.81543 23.481 9.81785C23.4825 9.81819 23.4841 9.81853 23.4857 9.81888C23.4877 9.81933 23.4897 9.81978 23.4917 9.82024C23.5005 9.82225 23.5092 9.82438 23.5179 9.82663C23.52 9.82717 23.5221 9.82771 23.5241 9.82826C23.5256 9.82867 23.5272 9.82908 23.5287 9.82949C23.5308 9.83007 23.5329 9.83065 23.535 9.83124C23.5624 9.83892 23.5894 9.84792 23.6158 9.85849C23.6215 9.86081 23.6272 9.86322 23.6329 9.8657C23.6645 9.87953 23.6949 9.89573 23.724 9.91405C23.8274 9.97907 23.9141 10.0707 23.9756 10.1768C23.9762 10.1778 23.9768 10.1788 23.9774 10.1798C23.9924 10.206 24.0059 10.2331 24.0177 10.2609C24.0208 10.2681 24.0237 10.2753 24.0266 10.2826C24.0558 10.3576 24.0731 10.4372 24.0759 10.518C23.9625 10.4509 23.8461 10.3877 23.726 10.3332C23.7227 10.3317 23.7194 10.3302 23.716 10.3287C23.685 10.3148 23.6537 10.3015 23.6222 10.2888C23.6108 10.2843 23.5993 10.2798 23.5878 10.2754C23.5941 10.3014 23.6001 10.3274 23.6059 10.3535C23.6148 10.4071 23.624 10.4674 23.6332 10.5337C23.6512 10.663 23.6694 10.8155 23.6865 10.9869L27.049 10.6726L27.1578 11.8541L26.5707 11.909L26.6251 12.4997L26.038 12.5546L26.0924 13.1453L23.7573 13.3635C23.7432 13.7216 23.7164 14.0877 23.6729 14.4502C23.7841 14.4673 23.8843 14.4786 23.9721 14.4867C24.0482 14.4936 24.115 14.4982 24.1718 14.5021L24.193 14.5035C24.2457 14.5068 24.2886 14.5102 24.3183 14.5135C24.36 14.5184 24.4016 14.5234 24.4431 14.5286C24.9944 14.598 25.5213 14.7006 25.7744 14.9354C26.0547 15.1531 26.2114 15.4953 26.1932 15.8558C26.1784 16.1781 26.025 16.4556 25.7859 16.6017L25.748 16.62C25.4638 16.7166 25.159 16.6115 24.8857 16.4642C24.7048 16.6889 24.4483 16.8756 24.2606 17.0121C23.9238 17.2581 23.5485 17.462 22.6592 17.761C22.6296 17.771 22.5994 17.781 22.5687 17.7912C22.4914 17.8169 22.4176 17.8414 22.347 17.8649C22.3467 17.865 22.3464 17.8651 22.3461 17.8652C22.3406 17.867 22.3352 17.8688 22.3298 17.8706C22.3296 17.8706 22.3294 17.8707 22.3293 17.8707C22.3118 17.8765 22.2945 17.8823 22.2773 17.8879C22.2726 17.8895 22.2678 17.8911 22.2631 17.8926C22.1275 17.9375 22.0043 17.9778 21.8911 18.014C21.9107 18.0431 21.9331 18.076 21.9585 18.1118L21.9704 18.129L21.9705 18.1291C22.0697 18.2726 22.2012 18.4627 22.3519 18.6837C22.9338 19.5368 23.8034 20.85 24.2177 21.7202C24.7767 22.8964 25.0026 24.1889 24.8526 25.3618C24.8509 25.3734 24.8493 25.3834 24.846 25.3934C23.6669 29.3988 20.2386 31.6997 15.1926 31.8741C14.993 31.8808 14.7919 31.8841 14.5907 31.8841V31.8858C14.509 31.8858 14.4272 31.8852 14.3454 31.8841C14.1694 31.8817 13.9931 31.8768 13.8167 31.8695C8.8107 31.6615 3.68611 29.4984 2.9601 27.6627C0.216123 24.0909 0.244154 19.6867 1.99707 17.8095C3.10851 16.62 4.71961 16.595 6.42965 17.738C7.5388 17.3491 8.8782 16.9373 10.3078 16.9149C10.6062 16.9103 10.9085 16.9226 11.2135 16.9555C11.0603 16.6986 10.9243 16.4261 10.8045 16.1427C10.4812 15.3775 10.2772 14.5339 10.1788 13.7089C10.1542 13.5026 10.1362 13.2975 10.1246 13.095C10.1215 13.0399 10.1188 12.9849 10.1166 12.9302C9.99249 12.9301 9.86776 12.9128 9.74596 12.8797C9.73306 12.9028 9.72056 12.9252 9.70846 12.947C9.55862 13.2168 9.46913 13.393 9.40633 13.5166L9.39786 13.5333C9.39323 13.5425 9.38872 13.5515 9.38431 13.5602C9.28664 13.7536 9.23981 13.8393 9.09938 13.9553C8.82565 14.1812 8.57335 14.2294 8.35238 14.271C8.17263 14.3042 8.01597 14.3341 7.83788 14.4587C7.70526 14.5515 7.59154 14.6756 7.49716 14.8302C7.48017 14.8581 7.46381 14.8869 7.44808 14.9167C7.40437 14.9996 7.36552 15.09 7.3316 15.188C7.33131 15.1888 7.33102 15.1897 7.33074 15.1905C7.31515 15.2357 7.3006 15.2825 7.2871 15.3309C7.25742 15.4372 7.16013 15.5136 7.04965 15.5136H7.048C6.93586 15.512 6.83857 15.4355 6.81054 15.3275C6.79813 15.2805 6.78672 15.2334 6.77629 15.1863C6.77628 15.1862 6.77627 15.1862 6.77626 15.1861C6.75161 15.0746 6.73246 14.9627 6.71877 14.8504C6.71177 14.7931 6.7062 14.7357 6.70205 14.6782C6.68899 14.4972 6.69002 14.3158 6.705 14.1347C6.77591 13.2609 7.14199 12.4717 7.73564 11.9169C8.01671 11.6539 8.31517 11.4705 8.59638 11.3425C8.59872 11.0845 8.65568 10.8935 8.66891 10.8535C8.67555 10.8328 8.68249 10.8124 8.68974 10.7922C8.7593 10.5985 8.85691 10.4282 8.97778 10.2868C8.89712 10.2401 8.82394 10.1926 8.75807 10.1458C8.60662 10.0388 8.47518 9.92383 8.36281 9.81195C8.15586 9.6059 8.01362 9.41044 7.93026 9.29523C7.60705 8.85 7.37124 8.34994 7.23108 7.80669C7.21129 7.73027 7.22943 7.64887 7.2789 7.5874C7.32837 7.52593 7.40422 7.49271 7.48338 7.49603C7.97808 7.51929 8.46949 7.46613 8.94771 7.3382C9.34018 7.23354 9.7178 7.07738 10.0723 6.8747C10.2636 6.31816 10.5225 5.7882 10.8408 5.29977C11.629 4.092 12.5822 3.45239 13.349 2.93904C14.4142 2.22302 15.0573 1.79274 16.0962 1.59006L16.0992 1.58947C16.658 1.48089 18.3445 1.15317 19.6268 2.09676C20.0341 2.39746 20.5008 2.90416 21.1472 3.60689C21.2115 3.67667 21.2709 3.74146 21.3269 3.80293L21.3296 3.80582C21.6921 4.20576 21.8421 4.37126 22.1234 4.43921C22.5255 4.53676 23.0224 4.40228 23.3538 4.31256L23.3585 4.31129C23.5465 4.25979 23.7329 4.195 23.9126 4.11858C23.9885 4.08535 24.0726 4.09366 24.1418 4.13685C24.2111 4.18005 24.254 4.2548 24.2573 4.33621C24.2721 4.6801 24.2523 5.02732 24.1995 5.36622L24.1986 5.37194V5.3721ZM24.9631 5.49397L24.9726 5.4341V5.43105C25.0269 5.0597 25.0468 4.68023 25.0306 4.30331C25.0165 3.9658 24.8382 3.6541 24.5492 3.47386C24.2776 3.30448 23.929 3.26326 23.6092 3.40122C23.4624 3.46351 23.3099 3.51648 23.1565 3.55858C23.1561 3.55867 23.1558 3.55877 23.1554 3.55886L23.153 3.55951C22.9829 3.60555 22.8164 3.64988 22.6502 3.675C22.479 3.70088 22.367 3.69626 22.3046 3.68113L22.3039 3.68095C22.296 3.67904 22.2924 3.67773 22.2916 3.67745C22.291 3.67723 22.2911 3.67726 22.2911 3.67725C22.291 3.67717 22.2885 3.67588 22.2831 3.67215C22.2775 3.66826 22.2683 3.66143 22.2548 3.64999C22.1852 3.59108 22.0965 3.49558 21.9011 3.28001L21.901 3.2799L21.8976 3.27616L21.8968 3.27532C21.84 3.213 21.7798 3.1473 21.7146 3.07656C21.7145 3.07648 21.7144 3.07639 21.7144 3.07631L21.6672 3.025C21.0649 2.37016 20.5538 1.81444 20.0843 1.4678L20.0833 1.46709C18.5259 0.321013 16.5518 0.706764 15.9843 0.817651C15.9732 0.819821 15.9627 0.821887 15.9526 0.823834L15.9491 0.824526C14.7528 1.05792 13.9933 1.56846 12.9605 2.26277L12.9206 2.28961L12.9077 2.29824C12.1357 2.81504 11.0709 3.52785 10.1941 4.87139L10.1938 4.87186C9.89724 5.32693 9.64733 5.81411 9.44924 6.32375C9.22389 6.43303 8.98977 6.52038 8.74965 6.58441L8.74909 6.58456C8.34713 6.69208 7.93487 6.73665 7.51946 6.71712L7.51753 6.71703L7.5156 6.71695C7.2018 6.70378 6.88734 6.83583 6.6777 7.09631C6.47661 7.34617 6.39905 7.68173 6.48198 8.00286C6.64657 8.64075 6.92439 9.23051 7.30552 9.75553L7.30612 9.75635C7.4112 9.90159 7.62974 10.2036 7.96869 10.5083C7.95623 10.5422 7.94444 10.5764 7.93332 10.611C7.91905 10.6546 7.89525 10.7353 7.87334 10.8443C7.65112 10.9777 7.42617 11.1423 7.20922 11.3452M24.9631 5.49397L24.9629 5.49533C24.9611 5.50661 24.9592 5.51841 24.9573 5.53073C24.8868 5.97787 24.7103 7.09718 23.9369 7.90738C23.9379 7.91171 23.9388 7.91604 23.9397 7.92037C24.0108 8.24559 24.0617 8.5768 24.0926 8.90381C24.1031 9.01079 24.0967 9.11641 24.0753 9.21761C24.4134 9.40904 24.6684 9.73008 24.7833 10.1013L27.7482 9.82417L28 12.5585L27.4129 12.6133L27.4673 13.2041L26.8801 13.2589L26.9345 13.8497L25.6081 13.9736C25.8308 14.049 26.0715 14.1611 26.2718 14.3375C26.7382 14.7126 26.9961 15.2904 26.9663 15.8934C26.9409 16.4364 26.677 16.969 26.1875 17.2683L26.1546 17.2885L26.0397 17.3438L25.9953 17.3589C25.6591 17.4731 25.3375 17.4482 25.0654 17.3752C24.9369 17.4823 24.8174 17.5689 24.7321 17.6308C24.7258 17.6354 24.7197 17.6399 24.7138 17.6442C24.3245 17.9283 23.9075 18.1499 23.1163 18.4279C23.6994 19.2886 24.5064 20.5237 24.9155 21.3829L24.9158 21.3834C25.5322 22.6805 25.7913 24.1239 25.6202 25.4615L25.6195 25.4668L25.6188 25.4721L25.6185 25.4742C25.616 25.4916 25.6078 25.5503 25.5864 25.6205C24.2989 29.9859 20.571 32.4256 15.3647 32.6478V32.6655H14.5907C11.8692 32.6655 9.06053 32.0721 6.82549 31.2283C5.70753 30.8063 4.71075 30.3132 3.93039 29.7837C3.21517 29.2984 2.58861 28.7205 2.28766 28.0607C0.861855 26.1726 0.145256 24.0628 0.0199493 22.152C-0.105643 20.2369 0.361329 18.4232 1.43332 17.2752L1.4335 17.275C2.12645 16.5334 3.00331 16.1349 3.97664 16.1194C4.82039 16.106 5.68563 16.38 6.52774 16.8801C7.50668 16.5496 8.69033 16.2139 9.97182 16.1465C9.78253 15.6453 9.63884 15.1233 9.53628 14.6014C9.12689 14.9187 8.73626 14.9921 8.50456 15.0356L8.49319 15.0377L8.49206 15.0379C8.3961 15.0556 8.36037 15.0635 8.33165 15.0728C8.31388 15.0786 8.3002 15.0846 8.27936 15.0991C8.21647 15.1432 8.11226 15.2549 8.03223 15.5418L8.03218 15.542C7.91105 15.9759 7.51579 16.2934 7.04965 16.2934H7.0423L7.03661 16.2933C6.58191 16.2865 6.18013 15.9771 6.06227 15.5269C5.93587 15.0474 5.8934 14.5579 5.93364 14.0706C6.01909 13.0193 6.46223 12.0436 7.20898 11.3455" fill="white"></path><defs><radialGradient id="paint0_radial_1017_4473" cx="0" cy="0" r="1" gradientUnits="userSpaceOnUse" gradientTransform="translate(93.6111 -13.3206) rotate(90) scale(63.2211 67.8676)"><stop stop-color="#3CFFF2"></stop><stop offset="0.848039" stop-color="#FFD900"></stop></radialGradient><radialGradient id="paint1_radial_1017_4473" cx="0" cy="0" r="1" gradientUnits="userSpaceOnUse" gradientTransform="translate(93.6111 -13.3206) rotate(90) scale(63.2211 67.8676)"><stop stop-color="#3CFFF2"></stop><stop offset="0.848039" stop-color="#FFD900"></stop></radialGradient><radialGradient id="paint2_radial_1017_4473" cx="0" cy="0" r="1" gradientUnits="userSpaceOnUse" gradientTransform="translate(93.6111 -13.3206) rotate(90) scale(63.2211 67.8676)"><stop stop-color="#3CFFF2"></stop><stop offset="0.848039" stop-color="#FFD900"></stop></radialGradient><radialGradient id="paint3_radial_1017_4473" cx="0" cy="0" r="1" gradientUnits="userSpaceOnUse" gradientTransform="translate(93.6111 -13.3206) rotate(90) scale(63.2211 67.8676)"><stop stop-color="#3CFFF2"></stop><stop offset="0.848039" stop-color="#FFD900"></stop></radialGradient><radialGradient id="paint4_radial_1017_4473" cx="0" cy="0" r="1" gradientUnits="userSpaceOnUse" gradientTransform="translate(93.6111 -13.3206) rotate(90) scale(63.2211 67.8676)"><stop stop-color="#3CFFF2"></stop><stop offset="0.848039" stop-color="#FFD900"></stop></radialGradient><radialGradient id="paint5_radial_1017_4473" cx="0" cy="0" r="1" gradientUnits="userSpaceOnUse" gradientTransform="translate(93.6111 -13.3206) rotate(90) scale(63.2211 67.8676)"><stop stop-color="#3CFFF2"></stop><stop offset="0.848039" stop-color="#FFD900"></stop></radialGradient><radialGradient id="paint6_radial_1017_4473" cx="0" cy="0" r="1" gradientUnits="userSpaceOnUse" gradientTransform="translate(93.6111 -13.3206) rotate(90) scale(63.2211 67.8676)"><stop stop-color="#3CFFF2"></stop><stop offset="0.848039" stop-color="#FFD900"></stop></radialGradient><radialGradient id="paint7_radial_1017_4473" cx="0" cy="0" r="1" gradientUnits="userSpaceOnUse" gradientTransform="translate(93.6111 -13.3206) rotate(90) scale(63.2211 67.8676)"><stop stop-color="#3CFFF2"></stop><stop offset="0.848039" stop-color="#FFD900"></stop></radialGradient><radialGradient id="paint8_radial_1017_4473" cx="0" cy="0" r="1" gradientUnits="userSpaceOnUse" gradientTransform="translate(93.6111 -13.3206) rotate(90) scale(63.2211 67.8676)"><stop stop-color="#3CFFF2"></stop><stop offset="0.848039" stop-color="#FFD900"></stop></radialGradient><radialGradient id="paint9_radial_1017_4473" cx="0" cy="0" r="1" gradientUnits="userSpaceOnUse" gradientTransform="translate(93.6111 -13.3206) rotate(90) scale(63.2211 67.8676)"><stop stop-color="#3CFFF2"></stop><stop offset="0.848039" stop-color="#FFD900"></stop></radialGradient><radialGradient id="paint10_radial_1017_4473" cx="0" cy="0" r="1" gradientUnits="userSpaceOnUse" gradientTransform="translate(93.6111 -13.3206) rotate(90) scale(63.2211 67.8676)"><stop stop-color="#3CFFF2"></stop><stop offset="0.848039" stop-color="#FFD900"></stop></radialGradient><radialGradient id="paint11_radial_1017_4473" cx="0" cy="0" r="1" gradientUnits="userSpaceOnUse" gradientTransform="translate(93.6111 -13.3206) rotate(90) scale(63.2211 67.8676)"><stop stop-color="#3CFFF2"></stop><stop offset="0.848039" stop-color="#FFD900"></stop></radialGradient><radialGradient id="paint12_radial_1017_4473" cx="0" cy="0" r="1" gradientUnits="userSpaceOnUse" gradientTransform="translate(93.6111 -13.3206) rotate(90) scale(63.2211 67.8676)"><stop stop-color="#3CFFF2"></stop><stop offset="0.848039" stop-color="#FFD900"></stop></radialGradient><radialGradient id="paint13_radial_1017_4473" cx="0" cy="0" r="1" gradientUnits="userSpaceOnUse" gradientTransform="translate(93.6111 -13.3206) rotate(90) scale(63.2211 67.8676)"><stop stop-color="#3CFFF2"></stop><stop offset="0.848039" stop-color="#FFD900"></stop></radialGradient><radialGradient id="paint14_radial_1017_4473" cx="0" cy="0" r="1" gradientUnits="userSpaceOnUse" gradientTransform="translate(93.6111 -13.3206) rotate(90) scale(63.2211 67.8676)"><stop stop-color="#3CFFF2"></stop><stop offset="0.848039" stop-color="#FFD900"></stop></radialGradient><radialGradient id="paint15_radial_1017_4473" cx="0" cy="0" r="1" gradientUnits="userSpaceOnUse" gradientTransform="translate(93.6111 -13.3206) rotate(90) scale(63.2211 67.8676)"><stop stop-color="#3CFFF2"></stop><stop offset="0.848039" stop-color="#FFD900"></stop></radialGradient><radialGradient id="paint16_radial_1017_4473" cx="0" cy="0" r="1" gradientUnits="userSpaceOnUse" gradientTransform="translate(93.6111 -13.3206) rotate(90) scale(63.2211 67.8676)"><stop stop-color="#3CFFF2"></stop><stop offset="0.848039" stop-color="#FFD900"></stop></radialGradient><radialGradient id="paint17_radial_1017_4473" cx="0" cy="0" r="1" gradientUnits="userSpaceOnUse" gradientTransform="translate(93.6111 -13.3206) rotate(90) scale(63.2211 67.8676)"><stop stop-color="#3CFFF2"></stop><stop offset="0.848039" stop-color="#FFD900"></stop></radialGradient><radialGradient id="paint18_radial_1017_4473" cx="0" cy="0" r="1" gradientUnits="userSpaceOnUse" gradientTransform="translate(93.6111 -13.3206) rotate(90) scale(63.2211 67.8676)"><stop stop-color="#3CFFF2"></stop><stop offset="0.848039" stop-color="#FFD900"></stop></radialGradient><radialGradient id="paint19_radial_1017_4473" cx="0" cy="0" r="1" gradientUnits="userSpaceOnUse" gradientTransform="translate(93.6111 -13.3206) rotate(90) scale(63.2211 67.8676)"><stop stop-color="#3CFFF2"></stop><stop offset="0.848039" stop-color="#FFD900"></stop></radialGradient><radialGradient id="paint20_radial_1017_4473" cx="0" cy="0" r="1" gradientUnits="userSpaceOnUse" gradientTransform="translate(93.6111 -13.3206) rotate(90) scale(63.2211 67.8676)"><stop stop-color="#3CFFF2"></stop><stop offset="0.848039" stop-color="#FFD900"></stop></radialGradient><radialGradient id="paint21_radial_1017_4473" cx="0" cy="0" r="1" gradientUnits="userSpaceOnUse" gradientTransform="translate(93.6111 -13.3206) rotate(90) scale(63.2211 67.8676)"><stop stop-color="#3CFFF2"></stop><stop offset="0.848039" stop-color="#FFD900"></stop></radialGradient><radialGradient id="paint22_radial_1017_4473" cx="0" cy="0" r="1" gradientUnits="userSpaceOnUse" gradientTransform="translate(93.6111 -13.3206) rotate(90) scale(63.2211 67.8676)"><stop stop-color="#3CFFF2"></stop><stop offset="0.848039" stop-color="#FFD900"></stop></radialGradient><radialGradient id="paint23_radial_1017_4473" cx="0" cy="0" r="1" gradientUnits="userSpaceOnUse" gradientTransform="translate(93.6111 -13.3206) rotate(90) scale(63.2211 67.8676)"><stop stop-color="#3CFFF2"></stop><stop offset="0.848039" stop-color="#FFD900"></stop></radialGradient><radialGradient id="paint24_radial_1017_4473" cx="0" cy="0" r="1" gradientUnits="userSpaceOnUse" gradientTransform="translate(93.6111 -13.3206) rotate(90) scale(63.2211 67.8676)"><stop stop-color="#3CFFF2"></stop><stop offset="0.848039" stop-color="#FFD900"></stop></radialGradient><radialGradient id="paint25_radial_1017_4473" cx="0" cy="0" r="1" gradientUnits="userSpaceOnUse" gradientTransform="translate(93.6111 -13.3206) rotate(90) scale(63.2211 67.8676)"><stop stop-color="#3CFFF2"></stop><stop offset="0.848039" stop-color="#FFD900"></stop></radialGradient><radialGradient id="paint26_radial_1017_4473" cx="0" cy="0" r="1" gradientUnits="userSpaceOnUse" gradientTransform="translate(93.6111 -13.3206) rotate(90) scale(63.2211 67.8676)"><stop stop-color="#3CFFF2"></stop><stop offset="0.848039" stop-color="#FFD900"></stop></radialGradient><radialGradient id="paint27_radial_1017_4473" cx="0" cy="0" r="1" gradientUnits="userSpaceOnUse" gradientTransform="translate(93.6111 -13.3206) rotate(90) scale(63.2211 67.8676)"><stop stop-color="#3CFFF2"></stop><stop offset="0.848039" stop-color="#FFD900"></stop></radialGradient><radialGradient id="paint28_radial_1017_4473" cx="0" cy="0" r="1" gradientUnits="userSpaceOnUse" gradientTransform="translate(93.6111 -13.3206) rotate(90) scale(63.2211 67.8676)"><stop stop-color="#3CFFF2"></stop><stop offset="0.848039" stop-color="#FFD900"></stop></radialGradient><radialGradient id="paint29_radial_1017_4473" cx="0" cy="0" r="1" gradientUnits="userSpaceOnUse" gradientTransform="translate(93.6111 -13.3206) rotate(90) scale(63.2211 67.8676)"><stop stop-color="#3CFFF2"></stop><stop offset="0.848039" stop-color="#FFD900"></stop></radialGradient><radialGradient id="paint30_radial_1017_4473" cx="0" cy="0" r="1" gradientUnits="userSpaceOnUse" gradientTransform="translate(93.6111 -13.3206) rotate(90) scale(63.2211 67.8676)"><stop stop-color="#3CFFF2"></stop><stop offset="0.848039" stop-color="#FFD900"></stop></radialGradient><radialGradient id="paint31_radial_1017_4473" cx="0" cy="0" r="1" gradientUnits="userSpaceOnUse" gradientTransform="translate(93.6111 -13.3206) rotate(90) scale(63.2211 67.8676)"><stop stop-color="#3CFFF2"></stop><stop offset="0.848039" stop-color="#FFD900"></stop></radialGradient><radialGradient id="paint32_radial_1017_4473" cx="0" cy="0" r="1" gradientUnits="userSpaceOnUse" gradientTransform="translate(93.6111 -13.3206) rotate(90) scale(63.2211 67.8676)"><stop stop-color="#3CFFF2"></stop><stop offset="0.848039" stop-color="#FFD900"></stop></radialGradient><radialGradient id="paint33_radial_1017_4473" cx="0" cy="0" r="1" gradientUnits="userSpaceOnUse" gradientTransform="translate(93.6111 -13.3206) rotate(90) scale(63.2211 67.8676)"><stop stop-color="#3CFFF2"></stop><stop offset="0.848039" stop-color="#FFD900"></stop></radialGradient><radialGradient id="paint34_radial_1017_4473" cx="0" cy="0" r="1" gradientUnits="userSpaceOnUse" gradientTransform="translate(93.6111 -13.3206) rotate(90) scale(63.2211 67.8676)"><stop stop-color="#3CFFF2"></stop><stop offset="0.848039" stop-color="#FFD900"></stop></radialGradient><radialGradient id="paint35_radial_1017_4473" cx="0" cy="0" r="1" gradientUnits="userSpaceOnUse" gradientTransform="translate(93.6111 -13.3206) rotate(90) scale(63.2211 67.8676)"><stop stop-color="#3CFFF2"></stop><stop offset="0.848039" stop-color="#FFD900"></stop></radialGradient><radialGradient id="paint36_radial_1017_4473" cx="0" cy="0" r="1" gradientUnits="userSpaceOnUse" gradientTransform="translate(93.6111 -13.3206) rotate(90) scale(63.2211 67.8676)"><stop stop-color="#3CFFF2"></stop><stop offset="0.848039" stop-color="#FFD900"></stop></radialGradient><radialGradient id="paint37_radial_1017_4473" cx="0" cy="0" r="1" gradientUnits="userSpaceOnUse" gradientTransform="translate(93.6111 -13.3206) rotate(90) scale(63.2211 67.8676)"><stop stop-color="#3CFFF2"></stop><stop offset="0.848039" stop-color="#FFD900"></stop></radialGradient><radialGradient id="paint38_radial_1017_4473" cx="0" cy="0" r="1" gradientUnits="userSpaceOnUse" gradientTransform="translate(93.6111 -13.3206) rotate(90) scale(63.2211 67.8676)"><stop stop-color="#3CFFF2"></stop><stop offset="0.848039" stop-color="#FFD900"></stop></radialGradient><radialGradient id="paint39_radial_1017_4473" cx="0" cy="0" r="1" gradientUnits="userSpaceOnUse" gradientTransform="translate(93.6111 -13.3206) rotate(90) scale(63.2211 67.8676)"><stop stop-color="#3CFFF2"></stop><stop offset="0.848039" stop-color="#FFD900"></stop></radialGradient><radialGradient id="paint40_radial_1017_4473" cx="0" cy="0" r="1" gradientUnits="userSpaceOnUse" gradientTransform="translate(93.6111 -13.3206) rotate(90) scale(63.2211 67.8676)"><stop stop-color="#3CFFF2"></stop><stop offset="0.848039" stop-color="#FFD900"></stop></radialGradient><radialGradient id="paint41_radial_1017_4473" cx="0" cy="0" r="1" gradientUnits="userSpaceOnUse" gradientTransform="translate(93.6111 -13.3206) rotate(90) scale(63.2211 67.8676)"><stop stop-color="#3CFFF2"></stop><stop offset="0.848039" stop-color="#FFD900"></stop></radialGradient><radialGradient id="paint42_radial_1017_4473" cx="0" cy="0" r="1" gradientUnits="userSpaceOnUse" gradientTransform="translate(93.6111 -13.3206) rotate(90) scale(63.2211 67.8676)"><stop stop-color="#3CFFF2"></stop><stop offset="0.848039" stop-color="#FFD900"></stop></radialGradient><radialGradient id="paint43_radial_1017_4473" cx="0" cy="0" r="1" gradientUnits="userSpaceOnUse" gradientTransform="translate(93.6111 -13.3206) rotate(90) scale(63.2211 67.8676)"><stop stop-color="#3CFFF2"></stop><stop offset="0.848039" stop-color="#FFD900"></stop></radialGradient><radialGradient id="paint44_radial_1017_4473" cx="0" cy="0" r="1" gradientUnits="userSpaceOnUse" gradientTransform="translate(93.6111 -13.3206) rotate(90) scale(63.2211 67.8676)"><stop stop-color="#3CFFF2"></stop><stop offset="0.848039" stop-color="#FFD900"></stop></radialGradient><radialGradient id="paint45_radial_1017_4473" cx="0" cy="0" r="1" gradientUnits="userSpaceOnUse" gradientTransform="translate(93.6111 -13.3206) rotate(90) scale(63.2211 67.8676)"><stop stop-color="#3CFFF2"></stop><stop offset="0.848039" stop-color="#FFD900"></stop></radialGradient><radialGradient id="paint46_radial_1017_4473" cx="0" cy="0" r="1" gradientUnits="userSpaceOnUse" gradientTransform="translate(93.6111 -13.3206) rotate(90) scale(63.2211 67.8676)"><stop stop-color="#3CFFF2"></stop><stop offset="0.848039" stop-color="#FFD900"></stop></radialGradient><radialGradient id="paint47_radial_1017_4473" cx="0" cy="0" r="1" gradientUnits="userSpaceOnUse" gradientTransform="translate(93.6111 -13.3206) rotate(90) scale(63.2211 67.8676)"><stop stop-color="#3CFFF2"></stop><stop offset="0.848039" stop-color="#FFD900"></stop></radialGradient><radialGradient id="paint48_radial_1017_4473" cx="0" cy="0" r="1" gradientUnits="userSpaceOnUse" gradientTransform="translate(93.6111 -13.3206) rotate(90) scale(63.2211 67.8676)"><stop stop-color="#3CFFF2"></stop><stop offset="0.848039" stop-color="#FFD900"></stop></radialGradient><radialGradient id="paint49_radial_1017_4473" cx="0" cy="0" r="1" gradientUnits="userSpaceOnUse" gradientTransform="translate(93.6111 -13.3206) rotate(90) scale(63.2211 67.8676)"><stop stop-color="#3CFFF2"></stop><stop offset="0.848039" stop-color="#FFD900"></stop></radialGradient><radialGradient id="paint50_radial_1017_4473" cx="0" cy="0" r="1" gradientUnits="userSpaceOnUse" gradientTransform="translate(93.6111 -13.3206) rotate(90) scale(63.2211 67.8676)"><stop stop-color="#3CFFF2"></stop><stop offset="0.848039" stop-color="#FFD900"></stop></radialGradient><radialGradient id="paint51_radial_1017_4473" cx="0" cy="0" r="1" gradientUnits="userSpaceOnUse" gradientTransform="translate(93.6111 -13.3206) rotate(90) scale(63.2211 67.8676)"><stop stop-color="#3CFFF2"></stop><stop offset="0.848039" stop-color="#FFD900"></stop></radialGradient><radialGradient id="paint52_radial_1017_4473" cx="0" cy="0" r="1" gradientUnits="userSpaceOnUse" gradientTransform="translate(93.6111 -13.3206) rotate(90) scale(63.2211 67.8676)"><stop stop-color="#3CFFF2"></stop><stop offset="0.848039" stop-color="#FFD900"></stop></radialGradient><radialGradient id="paint53_radial_1017_4473" cx="0" cy="0" r="1" gradientUnits="userSpaceOnUse" gradientTransform="translate(93.6111 -13.3206) rotate(90) scale(63.2211 67.8676)"><stop stop-color="#3CFFF2"></stop><stop offset="0.848039" stop-color="#FFD900"></stop></radialGradient><radialGradient id="paint54_radial_1017_4473" cx="0" cy="0" r="1" gradientUnits="userSpaceOnUse" gradientTransform="translate(93.6111 -13.3206) rotate(90) scale(63.2211 67.8676)"><stop stop-color="#3CFFF2"></stop><stop offset="0.848039" stop-color="#FFD900"></stop></radialGradient></defs></svg>