<svg xmlns="http://www.w3.org/2000/svg" width="16px" height="16px" fill="#53C1FF" viewBox="0 0 16 16"><path d="M14.356 9.036l-1.428-.385.497-.287c.294-.168.434-.532.287-.84a.653.653 0 00-.917-.294l-1.645.952-1.162-.322a.442.442 0 01-.196-.742l.882-.882h1.848c.336 0 .637-.245.672-.58a.652.652 0 00-.644-.715h-.581l1.015-1.015c.245-.245.287-.658.049-.917a.646.646 0 00-.938-.028l-1.064 1.064v-.574c0-.336-.245-.637-.581-.672a.652.652 0 00-.714.644V5.34l-.861.861a.445.445 0 01-.742-.196l-.322-1.197.917-1.596c.175-.3.105-.707-.189-.896a.655.655 0 00-.917.217l-.294.504-.357-1.393c-.091-.322-.406-.553-.742-.497a.643.643 0 00-.518.805l.392 1.45-.511-.295a.658.658 0 00-.819.12.647.647 0 00.161.993l1.645.952.315 1.17a.437.437 0 01-.539.538l-1.204-.322-.931-1.596c-.168-.294-.532-.434-.84-.287a.647.647 0 00-.294.91l.294.504-1.421-.378a.648.648 0 00-.805.518c-.063.336.168.651.49.742l1.421.385-.497.287c-.301.175-.441.56-.28.875a.65.65 0 00.896.266l1.645-.952 1.169.315a.442.442 0 01.196.742l-.882.882H3.464c-.336 0-.637.245-.672.581a.652.652 0 00.644.714h.581l-1.015 1.015c-.266.266-.28.714 0 .96.126.111.28.167.434.167a.636.636 0 00.455-.189l1.064-1.064v.574c0 .336.245.637.581.672a.652.652 0 00.714-.644V10.66l.861-.86a.445.445 0 01.742.195l.322 1.204-.924 1.603c-.168.294-.105.672.168.868a.645.645 0 00.378.126.652.652 0 00.56-.322l.294-.504.378 1.421a.65.65 0 00.861.441c.315-.119.469-.476.378-.798l-.378-1.42.511.293a.658.658 0 00.819-.119.647.647 0 00-.161-.994l-1.645-.952-.315-1.169a.437.437 0 01.539-.539l1.204.322.938 1.624a.637.637 0 00.938.196c.273-.196.336-.58.168-.868l-.28-.483 1.421.378a.655.655 0 00.812-.56c.056-.329-.168-.623-.483-.707zm-5.6-1.043a.75.75 0 11-1.5-.002.75.75 0 011.5.002z"></path></svg>