<svg xmlns="http://www.w3.org/2000/svg" fill="none" viewBox="0 0 72 32"><path fill="#fff" d="M2.944 5.45h2.944v2.943H2.944zm0 23.55H0V8.393h2.944zm2.944 0v2.944H2.944V29zM64.447 8.393V5.45h2.944v2.943zm2.944 0h2.944V29H67.39zm0 23.55h-2.944V29h2.944z"></path><path fill="#A66CFF" d="M19.172 3.924v2.355h2.355v2.355h-2.355v4.71h2.355v2.355h-2.355v4.71h2.355v2.354h-2.355v2.355h-2.356v-2.355h-2.355v-2.355h2.355v-4.71h-2.355v-2.354h2.355v-4.71h-2.355V6.279h2.355V3.924zm-7.067 4.71h2.356v4.71h-2.356zm11.778 0v2.355h-2.356V8.634zm0 11.774h-2.356v-4.71h2.356zm-11.777 0v-2.355h2.355v2.355z"></path><path fill="#D0F500" d="M51.887 3.924v2.355h2.355v2.355h-2.355v4.71h2.355v2.355h-2.355v4.71h2.355v2.354h-2.355v2.355H49.53v-2.355h-2.355v-2.355h2.355v-4.71h-2.355v-2.354h2.355v-4.71h-2.355V6.279h2.355V3.924zm-7.067 4.71h2.356v4.71H44.82zm11.778 0v2.355h-2.356V8.634zm0 11.774h-2.356v-4.71h2.356zm-11.778 0v-2.355h2.356v2.355z"></path><path fill="#fff" d="M26.424 25.382h15.701v2.617H26.424z"></path></svg>