<svg t="1727599003174" class="icon" viewBox="0 0 1024 1024" version="1.1" xmlns="http://www.w3.org/2000/svg" p-id="2386" xmlns:xlink="http://www.w3.org/1999/xlink"><path d="M345.884 91.022c63.557 0 106.69 22.232 166.207 72.704 59.506-50.472 102.65-72.704 166.207-72.704 134.678 0 226.93 81.852 264.943 216.371a34.133 34.133 0 1 1-65.707 18.546C847.314 219 780.026 159.29 678.309 159.29c-44.305 0-75.082 16.27-124.928 58.937-2.31 1.98-15.36 13.244-19.137 16.463a34.145 34.145 0 0 1-44.306 0c-3.777-3.22-16.839-14.483-19.148-16.463-49.835-42.667-80.612-58.937-124.906-58.937-134.542 0-220.728 107.77-220.728 263.213 0 118.363 120.843 265.478 366.546 436.054a34.702 34.702 0 0 0 39.697-0.17c50.62-35.773 84.287-60.19 100.58-72.932a34.145 34.145 0 0 1 42.052 53.794c-17.442 13.63-51.712 38.49-103.22 74.888a102.992 102.992 0 0 1-118.055 0.49C190.18 732.33 56.889 570.06 56.889 422.501c0-190.213 112.97-331.48 288.995-331.48zM759.751 683.44a34.054 34.054 0 0 1-24.291-9.284l-99.397-93.696a31.812 31.812 0 0 1 0-46.307l1.15-1.081a34.133 34.133 0 0 1 46.83 0l75.708 71.372 149.39-140.822a34.133 34.133 0 0 1 46.831 0l1.138 1.08a31.812 31.812 0 0 1 0 46.308L784.043 674.167a34.054 34.054 0 0 1-24.28 9.273z" p-id="2387"></path></svg>