<svg t="1727600103621" class="icon" viewBox="0 0 1024 1024" version="1.1" xmlns="http://www.w3.org/2000/svg" p-id="8894"><path d="M311.893333 375.253333v278.186667c0 31.146667 25.088 56.618667 55.808 56.618667h274.645334v103.765333c0 31.146667-25.173333 56.576-55.893334 56.576H209.493333c-30.72 0-55.850667-25.472-55.850666-56.576V431.786667c0-31.146667 25.173333-56.576 55.893333-56.576h102.4zM814.506667 153.6c30.72 0 55.893333 25.472 55.893333 56.576v381.994667c0 31.146667-25.173333 56.576-55.893333 56.576h-376.96c-30.72 0-55.893333-25.472-55.893334-56.576V210.176c0-31.146667 25.173333-56.576 55.893334-56.576h377.002666z" p-id="8895"></path></svg>