<svg t="1727602150472" class="icon" viewBox="0 0 1066 1024" version="1.1" xmlns="http://www.w3.org/2000/svg" p-id="2467" xmlns:xlink="http://www.w3.org/1999/xlink"><path d="M911.557091 1023.986547H154.982329c-85.455534 0-154.982329-75.338632-154.982329-167.88407v-665.939697C0 97.590436 69.526795 22.27871 154.982329 22.27871h403.182763v47.086645H154.982329c-59.504066 0-107.895684 54.190002-107.895684 120.797425v665.939697c0 66.607423 48.431978 120.797425 107.895684 120.797424h756.574762c59.504066 0 107.895684-54.190002 107.895684-120.797424V534.917743h47.086646v321.184734c0.013453 92.572344-69.486435 167.88407-154.98233 167.88407z" p-id="2468"></path><path d="M526.361427 605.359364l-46.131459-9.417329c0.874466-4.305065 22.372883-106.779058 96.863956-218.58966 43.804033-65.840583 97.079209-121.241385 158.143861-164.668725 76.428352-54.311082 165.287578-89.814412 264.102266-105.514446l7.385877 46.508153c-91.590252 14.5565-173.749721 47.315352-244.218249 97.388635-56.409801 40.077462-105.608619 91.348092-146.264573 152.385837-69.405715 104.236379-89.693332 200.938895-89.881679 201.907535z" p-id="2469"></path><path d="M933.808894 387.859423l-44.140366-16.386152 88.643973-238.675478-238.662025-88.657426L756.050082 0l282.802391 105.057032-105.043579 282.802391z" p-id="2470"></path></svg>